<svg width="74" height="74" viewBox="0 0 74 74" fill="none" xmlns="http://www.w3.org/2000/svg">
<g clip-path="url(#clip0_47_476)">
<path d="M52.7716 24.8216C51.8876 25.0565 51.0931 25.5482 50.4885 26.2346C49.884 26.9209 49.4965 27.7712 49.3751 28.6778C49.2538 29.5844 49.4039 30.5066 49.8066 31.3278C50.2094 32.1491 50.8466 32.8325 51.6377 33.2916C52.4288 33.7507 53.3382 33.965 54.2511 33.9073C55.1639 33.8496 56.0392 33.5225 56.7662 32.9674C57.4931 32.4122 58.0392 31.654 58.3353 30.7886C58.6313 29.9232 58.6642 28.9894 58.4296 28.1053C58.2738 27.5182 58.0038 26.9674 57.6351 26.4846C57.2665 26.0018 56.8063 25.5963 56.2809 25.2914C55.7554 24.9865 55.1751 24.788 54.573 24.7074C53.9709 24.6268 53.3588 24.6656 52.7716 24.8216Z" fill="#F8F9FA"/>
<path d="M37.3541 15.5716C36.4701 15.8065 35.6756 16.2982 35.0711 16.9846C34.4665 17.671 34.079 18.5212 33.9577 19.4278C33.8363 20.3344 33.9864 21.2566 34.3892 22.0778C34.7919 22.8991 35.4291 23.5825 36.2202 24.0416C37.0113 24.5007 37.9207 24.715 38.8336 24.6573C39.7464 24.5996 40.6217 24.2725 41.3486 23.7174C42.0756 23.1623 42.6217 22.4041 42.9177 21.5386C43.2138 20.6732 43.2466 19.7394 43.0121 18.8553C42.8563 18.2682 42.5863 17.7174 42.2176 17.2346C41.8489 16.7518 41.3887 16.3463 40.8633 16.0414C40.3379 15.7365 39.7576 15.538 39.1555 15.4574C38.5534 15.3768 37.9413 15.4156 37.3541 15.5716V15.5716Z" fill="#F8F9FA"/>
<path d="M21.9386 24.8216C21.0546 25.0565 20.2601 25.5482 19.6555 26.2346C19.051 26.9209 18.6635 27.7712 18.5421 28.6778C18.4208 29.5844 18.5709 30.5066 18.9736 31.3278C19.3764 32.1491 20.0135 32.8325 20.8046 33.2916C21.5957 33.7507 22.5052 33.965 23.418 33.9073C24.3309 33.8496 25.2061 33.5225 25.9331 32.9674C26.6601 32.4122 27.2061 31.654 27.5022 30.7886C27.7983 29.9232 27.8311 28.9894 27.5965 28.1053C27.4407 27.5182 27.1708 26.9674 26.8021 26.4846C26.4334 26.0018 25.9732 25.5963 25.4478 25.2914C24.9224 24.9865 24.3421 24.788 23.7399 24.7074C23.1378 24.6268 22.5257 24.6656 21.9386 24.8216Z" fill="#F8F9FA"/>
<path d="M21.9386 43.3216C21.0546 43.5565 20.2601 44.0482 19.6555 44.7346C19.051 45.421 18.6635 46.2712 18.5421 47.1778C18.4208 48.0844 18.5709 49.0066 18.9736 49.8278C19.3764 50.6491 20.0135 51.3325 20.8046 51.7916C21.5957 52.2508 22.5052 52.465 23.418 52.4073C24.3309 52.3496 25.2061 52.0225 25.9331 51.4674C26.6601 50.9123 27.2061 50.1541 27.5022 49.2886C27.7983 48.4232 27.8311 47.4894 27.5965 46.6053C27.4407 46.0182 27.1708 45.4674 26.8021 44.9846C26.4334 44.5018 25.9732 44.0963 25.4478 43.7914C24.9224 43.4865 24.3421 43.288 23.7399 43.2074C23.1378 43.1268 22.5257 43.1656 21.9386 43.3216V43.3216Z" fill="#F8F9FA"/>
<path d="M38.5421 0.0203948C33.5779 -0.152216 28.6298 0.676498 23.9927 2.45713C19.3556 4.23776 15.1245 6.93385 11.5517 10.3847C7.97891 13.8355 5.1375 17.9704 3.1969 22.5428C1.2563 27.1152 0.256245 32.0316 0.256348 36.9988C0.267772 46.8083 4.16964 56.2128 11.106 63.1491C18.0424 70.0855 27.4468 73.9874 37.2563 73.9988C38.2985 73.9988 39.3222 73.931 40.3397 73.8446C41.1117 73.7796 41.831 73.4262 42.3543 72.8549C42.8777 72.2835 43.1668 71.5361 43.164 70.7613L43.0653 59.6983C43.0404 57.5121 43.6675 55.3681 44.8668 53.5401C46.066 51.712 47.7828 50.2828 49.7981 49.435C51.8133 48.5872 54.0355 48.3593 56.1809 48.7803C58.3263 49.2014 60.2975 50.2522 61.8428 51.7988L62.1512 52.1071C62.8512 52.8131 63.7183 53.3305 64.6719 53.6114C65.6256 53.8923 66.6347 53.9274 67.6056 53.7136C68.5608 53.5131 69.4502 53.0756 70.1921 52.4415C70.9341 51.8073 71.5046 50.9968 71.8513 50.0845C73.5537 45.6146 74.3675 40.8554 74.2471 36.0738C73.9001 26.682 70.0372 17.7634 63.424 11.0856C56.8108 4.40793 47.9301 0.458575 38.5421 0.0203948V0.0203948ZM66.2366 47.5037L66.1934 47.4606C63.7833 45.0545 60.712 43.4197 57.3701 42.7642C54.0282 42.1086 50.5668 42.462 47.4264 43.7794C44.2859 45.0967 41.6083 47.3185 39.7342 50.162C37.86 53.0055 36.8741 56.3422 36.9018 59.7476L36.9758 67.8321C28.7983 67.7953 20.9703 64.5115 15.2139 58.7032C9.45759 52.8948 6.24438 45.0376 6.28118 36.8601C6.31798 28.6826 9.60177 20.8546 15.4102 15.0982C21.2186 9.34189 29.0758 6.12868 37.2533 6.16548C37.614 6.16548 37.9779 6.16548 38.3417 6.18398C46.1622 6.5513 53.5594 9.84309 59.0674 15.407C64.5753 20.971 67.7922 28.4011 68.0804 36.2249C68.1822 40.0593 67.5598 43.8785 66.2459 47.4821L66.2366 47.5037Z" fill="#F8F9FA"/>
</g>
<defs>
<clipPath id="clip0_47_476">
<rect width="74" height="74" fill="white"/>
</clipPath>
</defs>
</svg>
