<svg width="74" height="74" viewBox="0 0 74 74" fill="none" xmlns="http://www.w3.org/2000/svg">
<g clip-path="url(#clip0_47_541)">
<path d="M70.9167 67.8333H9.25C8.43225 67.8333 7.64799 67.5085 7.06975 66.9302C6.49152 66.352 6.16667 65.5677 6.16667 64.75V3.08333C6.16667 2.26558 5.84182 1.48132 5.26358 0.903087C4.68534 0.32485 3.90108 0 3.08333 0C2.26558 0 1.48132 0.32485 0.903087 0.903087C0.32485 1.48132 0 2.26558 0 3.08333L0 64.75C0 67.2033 0.974551 69.556 2.70926 71.2907C4.44397 73.0254 6.79675 74 9.25 74H70.9167C71.7344 74 72.5187 73.6752 73.0969 73.0969C73.6752 72.5187 74 71.7344 74 70.9167C74 70.0989 73.6752 69.3147 73.0969 68.7364C72.5187 68.1582 71.7344 67.8333 70.9167 67.8333Z" fill="#F8F9FA"/>
<path d="M46.2503 61.6685C47.0681 61.6685 47.8524 61.3436 48.4306 60.7654C49.0088 60.1871 49.3337 59.4029 49.3337 58.5851V37.0018C49.3337 36.184 49.0088 35.3998 48.4306 34.8215C47.8524 34.2433 47.0681 33.9185 46.2503 33.9185C45.4326 33.9185 44.6483 34.2433 44.0701 34.8215C43.4918 35.3998 43.167 36.184 43.167 37.0018V58.5851C43.167 59.4029 43.4918 60.1871 44.0701 60.7654C44.6483 61.3436 45.4326 61.6685 46.2503 61.6685Z" fill="#F8F9FA"/>
<path d="M21.5833 61.6685C22.4011 61.6685 23.1853 61.3436 23.7636 60.7654C24.3418 60.1871 24.6667 59.4029 24.6667 58.5851V37.0018C24.6667 36.184 24.3418 35.3998 23.7636 34.8215C23.1853 34.2433 22.4011 33.9185 21.5833 33.9185C20.7656 33.9185 19.9813 34.2433 19.4031 34.8215C18.8249 35.3998 18.5 36.184 18.5 37.0018V58.5851C18.5 59.4029 18.8249 60.1871 19.4031 60.7654C19.9813 61.3436 20.7656 61.6685 21.5833 61.6685Z" fill="#F8F9FA"/>
<path d="M58.5834 61.6667C59.4011 61.6667 60.1854 61.3418 60.7636 60.7636C61.3419 60.1853 61.6667 59.4011 61.6667 58.5833V21.5833C61.6667 20.7656 61.3419 19.9813 60.7636 19.4031C60.1854 18.8249 59.4011 18.5 58.5834 18.5C57.7656 18.5 56.9813 18.8249 56.4031 19.4031C55.8248 19.9813 55.5 20.7656 55.5 21.5833V58.5833C55.5 59.4011 55.8248 60.1853 56.4031 60.7636C56.9813 61.3418 57.7656 61.6667 58.5834 61.6667Z" fill="#F8F9FA"/>
<path d="M33.9161 61.6667C34.7339 61.6667 35.5181 61.3418 36.0964 60.7636C36.6746 60.1853 36.9995 59.4011 36.9995 58.5833V21.5833C36.9995 20.7656 36.6746 19.9813 36.0964 19.4031C35.5181 18.8249 34.7339 18.5 33.9161 18.5C33.0984 18.5 32.3141 18.8249 31.7359 19.4031C31.1576 19.9813 30.8328 20.7656 30.8328 21.5833V58.5833C30.8328 59.4011 31.1576 60.1853 31.7359 60.7636C32.3141 61.3418 33.0984 61.6667 33.9161 61.6667Z" fill="#F8F9FA"/>
</g>
<defs>
<clipPath id="clip0_47_541">
<rect width="74" height="74" fill="white"/>
</clipPath>
</defs>
</svg>
