<svg width="75" height="75" viewBox="0 0 75 75" fill="none" xmlns="http://www.w3.org/2000/svg">
<path d="M59.375 18.749H40.625V9.37402C40.625 8.54522 40.2958 7.75037 39.7097 7.16431C39.1237 6.57826 38.3288 6.24902 37.5 6.24902C36.6712 6.24902 35.8763 6.57826 35.2903 7.16431C34.7042 7.75037 34.375 8.54522 34.375 9.37402V18.749H15.625C11.4825 18.754 7.51112 20.4018 4.58194 23.331C1.65276 26.2601 0.00496206 30.2315 0 34.374L0 46.874C0.00496206 51.0165 1.65276 54.9879 4.58194 57.9171C7.51112 60.8463 11.4825 62.4941 15.625 62.499H59.375C63.5175 62.4941 67.4889 60.8463 70.4181 57.9171C73.3472 54.9879 74.995 51.0165 75 46.874V34.374C74.995 30.2315 73.3472 26.2601 70.4181 23.331C67.4889 20.4018 63.5175 18.754 59.375 18.749V18.749ZM68.75 46.874C68.75 49.3604 67.7623 51.745 66.0041 53.5032C64.246 55.2613 61.8614 56.249 59.375 56.249H15.625C13.1386 56.249 10.754 55.2613 8.99587 53.5032C7.23772 51.745 6.25 49.3604 6.25 46.874V34.374C6.25 31.8876 7.23772 29.503 8.99587 27.7449C10.754 25.9867 13.1386 24.999 15.625 24.999H59.375C61.8614 24.999 64.246 25.9867 66.0041 27.7449C67.7623 29.503 68.75 31.8876 68.75 34.374V46.874Z" fill="#F8F9FA"/>
<path d="M46.8754 43.749H28.1255C27.2967 43.749 26.5018 44.0783 25.9158 44.6643C25.3297 45.2504 25.0005 46.0452 25.0005 46.874C25.0005 47.7028 25.3297 48.4977 25.9158 49.0838C26.5018 49.6698 27.2967 49.9991 28.1255 49.9991H46.8754C47.7042 49.9991 48.4991 49.6698 49.0852 49.0838C49.6712 48.4977 50.0004 47.7028 50.0004 46.874C50.0004 46.0452 49.6712 45.2504 49.0852 44.6643C48.4991 44.0783 47.7042 43.749 46.8754 43.749Z" fill="#F8F9FA"/>
<path d="M31.25 37.501H34.375C35.2038 37.501 35.9987 37.1717 36.5847 36.5857C37.1708 35.9996 37.5 35.2048 37.5 34.376C37.5 33.5472 37.1708 32.7523 36.5847 32.1663C35.9987 31.5802 35.2038 31.251 34.375 31.251H31.25C30.4212 31.251 29.6263 31.5802 29.0403 32.1663C28.4542 32.7523 28.125 33.5472 28.125 34.376C28.125 35.2048 28.4542 35.9996 29.0403 36.5857C29.6263 37.1717 30.4212 37.501 31.25 37.501V37.501Z" fill="#F8F9FA"/>
<path d="M59.3755 31.251H46.8755C46.0467 31.251 45.2518 31.5802 44.6658 32.1663C44.0797 32.7523 43.7505 33.5472 43.7505 34.376C43.7505 35.2048 44.0797 35.9996 44.6658 36.5857C45.2518 37.1717 46.0467 37.501 46.8755 37.501H59.3755C60.2043 37.501 60.9991 37.1717 61.5852 36.5857C62.1713 35.9996 62.5005 35.2048 62.5005 34.376C62.5005 33.5472 62.1713 32.7523 61.5852 32.1663C60.9991 31.5802 60.2043 31.251 59.3755 31.251Z" fill="#F8F9FA"/>
<path d="M18.7502 31.251H15.6252C14.7964 31.251 14.0016 31.5802 13.4155 32.1663C12.8295 32.7523 12.5002 33.5472 12.5002 34.376C12.5002 35.2048 12.8295 35.9996 13.4155 36.5857C14.0016 37.1717 14.7964 37.501 15.6252 37.501H18.7502C19.579 37.501 20.3739 37.1717 20.96 36.5857C21.546 35.9996 21.8752 35.2048 21.8752 34.376C21.8752 33.5472 21.546 32.7523 20.96 32.1663C20.3739 31.5802 19.579 31.251 18.7502 31.251Z" fill="#F8F9FA"/>
<path d="M15.6252 49.9991C17.3511 49.9991 18.7502 48.5999 18.7502 46.874C18.7502 45.1481 17.3511 43.749 15.6252 43.749C13.8994 43.749 12.5002 45.1481 12.5002 46.874C12.5002 48.5999 13.8994 49.9991 15.6252 49.9991Z" fill="#F8F9FA"/>
<path d="M59.375 49.9991C61.1009 49.9991 62.5 48.5999 62.5 46.874C62.5 45.1481 61.1009 43.749 59.375 43.749C57.6491 43.749 56.25 45.1481 56.25 46.874C56.25 48.5999 57.6491 49.9991 59.375 49.9991Z" fill="#F8F9FA"/>
</svg>
