<svg width="74" height="74" viewBox="0 0 74 74" fill="none" xmlns="http://www.w3.org/2000/svg">
<g clip-path="url(#clip0_49_825)">
<path d="M46.2748 73.9996C44.5659 74.0023 42.8895 73.5326 41.4307 72.6424C39.9719 71.7523 38.7876 70.4762 38.0084 68.9553L28.3668 48.2846L17.4457 57.8214C16.9997 58.211 16.4511 58.464 15.8652 58.5501C15.2793 58.6362 14.681 58.5518 14.1418 58.3069C13.6027 58.0621 13.1454 57.6671 12.8247 57.1693C12.504 56.6714 12.3335 56.0918 12.3335 55.4996V9.18794C12.3334 7.40613 12.848 5.6622 13.8153 4.16582C14.7826 2.66944 16.1615 1.48428 17.7863 0.752833C19.411 0.0213806 21.2125 -0.225237 22.9741 0.0426255C24.7356 0.310488 26.3823 1.08143 27.7162 2.26278L60.7079 33.8299C61.136 34.2388 61.4373 34.7623 61.5759 35.3379C61.7145 35.9135 61.6844 36.5167 61.4893 37.0757C61.2942 37.6346 60.9423 38.1255 60.4757 38.4899C60.0091 38.8542 59.4475 39.0765 58.8579 39.1302L45.0816 40.3851L54.532 60.6395C55.2304 62.0476 55.5585 63.6103 55.4853 65.1803C55.4121 66.7503 54.9401 68.2758 54.1138 69.6127C53.2875 70.9497 52.1341 72.0541 50.7626 72.8216C49.391 73.5892 47.8465 73.9946 46.2748 73.9996ZM29.4244 40.1816C29.6388 40.1818 29.8526 40.2035 30.0627 40.2464C30.5308 40.3451 30.9695 40.5514 31.3441 40.8489C31.7187 41.1465 32.0189 41.5271 32.221 41.9607L43.5523 66.245C43.7426 66.6028 44.0015 66.9195 44.3142 67.1772C44.6269 67.4349 44.9873 67.6284 45.3748 67.7468C45.7624 67.8652 46.1694 67.9061 46.5728 67.8672C46.9761 67.8283 47.3678 67.7103 47.7255 67.52C48.0833 67.3297 48.4 67.0708 48.6577 66.758C48.9154 66.4453 49.1089 66.0849 49.2273 65.6974C49.3457 65.3099 49.3866 64.9028 49.3477 64.4995C49.3088 64.0961 49.1908 63.7044 49.0005 63.3467L37.6477 39.0161C37.4383 38.5678 37.3399 38.0756 37.3608 37.5813C37.3816 37.0869 37.5212 36.6048 37.7676 36.1757C38.0141 35.7467 38.3602 35.3832 38.7767 35.1161C39.1931 34.8489 39.6678 34.6859 40.1606 34.6409L51.5689 33.6018L23.5383 6.80144C23.0991 6.42816 22.5615 6.18947 21.99 6.11401C21.4185 6.03854 20.8374 6.12948 20.3162 6.37594C19.7716 6.6155 19.3092 7.00963 18.9863 7.50948C18.6635 8.00934 18.4945 8.59293 18.5002 9.18794V48.7163L27.3956 40.9463C27.957 40.4542 28.6779 40.1825 29.4244 40.1816V40.1816Z" fill="#F8F9FA"/>
</g>
<defs>
<clipPath id="clip0_49_825">
<rect width="74" height="74" fill="white"/>
</clipPath>
</defs>
</svg>
