<svg width="22" height="22" viewBox="0 0 22 22" fill="none" xmlns="http://www.w3.org/2000/svg">
<path d="M3.53275 9.93336C3.53275 5.22053 7.35325 1.40002 12.0661 1.40002C16.7789 1.40002 20.5994 5.22053 20.5994 9.93336C20.5994 11.16 20.3406 12.3263 19.8745 13.3804L20.601 18.4659L16.2429 17.3763C15.0083 18.0707 13.5834 18.4667 12.0661 18.4667M1.40042 15.2667C1.40042 16.0334 1.56218 16.7623 1.85343 17.4211L1.39941 20.5995L4.123 19.9186C4.89457 20.3525 5.78501 20.6 6.73325 20.6C9.67849 20.6 12.0661 18.2122 12.0661 15.2667C12.0661 12.3212 9.67849 9.93336 6.73325 9.93336C3.78801 9.93336 1.40042 12.3212 1.40042 15.2667Z" stroke="#1C43FF" stroke-linecap="round" stroke-linejoin="round"/>
</svg>
