<svg width="10" height="12" viewBox="0 0 10 12" fill="none" xmlns="http://www.w3.org/2000/svg">
<path d="M9.11521 5.54059C9.10129 5.48015 9.07259 5.4241 9.03168 5.37747C8.99078 5.33084 8.93895 5.29508 8.88083 5.27341L6.18083 4.26091L6.86521 0.824969C6.88095 0.745379 6.87078 0.662841 6.83619 0.589451C6.80161 0.516062 6.74442 0.45568 6.67302 0.417157C6.60091 0.3788 6.51815 0.365358 6.43761 0.378923C6.35707 0.392487 6.28327 0.432297 6.22771 0.492157L0.977709 6.11716C0.93469 6.16179 0.903565 6.21651 0.887185 6.27629C0.870805 6.33608 0.869696 6.39902 0.883959 6.45934C0.898634 6.51946 0.927605 6.57514 0.968409 6.62165C1.00921 6.66817 1.06065 6.70415 1.11833 6.72653L3.81833 7.73903L3.13396 11.175C3.11822 11.2546 3.12839 11.3371 3.16297 11.4105C3.19756 11.4839 3.25474 11.5443 3.32615 11.5828C3.37997 11.6099 3.4393 11.6244 3.49958 11.625C3.55052 11.6252 3.60096 11.6149 3.64774 11.5947C3.69452 11.5746 3.73664 11.545 3.77146 11.5078L9.02146 5.88278C9.06448 5.83815 9.0956 5.78343 9.11198 5.72365C9.12836 5.66386 9.12947 5.60092 9.11521 5.54059Z" fill="white"/>
</svg>
