<svg width="26" height="27" viewBox="0 0 26 27" fill="none" xmlns="http://www.w3.org/2000/svg">
<path d="M8.5 7.5C3.5 11.5 3 17 7 24M17.5 19.5C22.5 15.5 23 10.1077 19 3.10766M13 1.5C9.8174 1.5 6.76515 2.76428 4.51472 5.01472C2.26428 7.26515 1 10.3174 1 13.5C1 16.6826 2.26428 19.7348 4.51472 21.9853C6.76515 24.2357 9.8174 25.5 13 25.5C16.1826 25.5 19.2348 24.2357 21.4853 21.9853C23.7357 19.7348 25 16.6826 25 13.5C25 10.3174 23.7357 7.26515 21.4853 5.01472C19.2348 2.76428 16.1826 1.5 13 1.5ZM13 6C11.0109 6 9.10322 6.79018 7.6967 8.1967C6.29018 9.60322 5.5 11.5109 5.5 13.5C5.5 15.4891 6.29018 17.3968 7.6967 18.8033C9.10322 20.2098 11.0109 21 13 21C14.9891 21 16.8968 20.2098 18.3033 18.8033C19.7098 17.3968 20.5 15.4891 20.5 13.5C20.5 11.5109 19.7098 9.60322 18.3033 8.1967C16.8968 6.79018 14.9891 6 13 6Z" stroke="#1C43FF" stroke-width="2" stroke-linejoin="round"/>
</svg>
