<svg width="18" height="17" viewBox="0 0 18 17" fill="none" xmlns="http://www.w3.org/2000/svg">
<path d="M3.5 14.5C3.88431 14.0696 5.68421 12.0889 6.21167 12.0889H11.7887C12.553 12.0889 14.1133 13.7307 14.5 14.3095M17 8.5C17 12.9183 13.4183 16.5 9 16.5C4.58172 16.5 1 12.9183 1 8.5C1 4.08172 4.58172 0.5 9 0.5C13.4183 0.5 17 4.08172 17 8.5ZM11.8657 5.7733C11.8657 4.24704 10.5773 3 9.00024 3C7.42326 3 6.13478 4.24704 6.13478 5.7733C6.13478 7.29956 7.42326 8.5466 9.00024 8.5466C10.5772 8.5466 11.8657 7.29956 11.8657 5.7733Z" stroke="#1C43FF"/>
</svg>
