<svg viewBox="0 0 25 24" fill="none" xmlns="http://www.w3.org/2000/svg">
<path d="M2.8999 5.40005H22.0999M10.0999 17.4V10.2M14.8999 17.4V10.2M17.2999 22.2H7.6999C6.37442 22.2 5.2999 21.1255 5.2999 19.8V6.60005C5.2999 5.93731 5.83716 5.40005 6.4999 5.40005H18.4999C19.1626 5.40005 19.6999 5.93731 19.6999 6.60005V19.8001C19.6999 21.1255 18.6254 22.2 17.2999 22.2ZM10.0999 5.40005H14.8999C15.5626 5.40005 16.0999 4.86279 16.0999 4.20005V3.00005C16.0999 2.33731 15.5626 1.80005 14.8999 1.80005H10.0999C9.43716 1.80005 8.8999 2.33731 8.8999 3.00005V4.20005C8.8999 4.86279 9.43716 5.40005 10.0999 5.40005Z" stroke="currentColor" stroke-linecap="round" stroke-linejoin="round"/>
</svg>
