<svg width="107" height="107" viewBox="0 0 107 107" fill="none" xmlns="http://www.w3.org/2000/svg">
<g clip-path="url(#clip0_1_79)">
<path d="M31.2083 62.4167C31.2083 63.5991 30.7386 64.7331 29.9025 65.5692C29.0664 66.4053 27.9324 66.875 26.75 66.875H22.2917C21.1092 66.875 19.9753 66.4053 19.1392 65.5692C18.3031 64.7331 17.8333 63.5991 17.8333 62.4167C17.8333 61.2342 18.3031 60.1003 19.1392 59.2642C19.9753 58.4281 21.1092 57.9583 22.2917 57.9583H26.75C27.9324 57.9583 29.0664 58.4281 29.9025 59.2642C30.7386 60.1003 31.2083 61.2342 31.2083 62.4167ZM49.0417 57.9583H44.5833C43.4009 57.9583 42.2669 58.4281 41.4308 59.2642C40.5947 60.1003 40.125 61.2342 40.125 62.4167C40.125 63.5991 40.5947 64.7331 41.4308 65.5692C42.2669 66.4053 43.4009 66.875 44.5833 66.875H49.0417C50.2241 66.875 51.3581 66.4053 52.1942 65.5692C53.0303 64.7331 53.5 63.5991 53.5 62.4167C53.5 61.2342 53.0303 60.1003 52.1942 59.2642C51.3581 58.4281 50.2241 57.9583 49.0417 57.9583ZM26.75 75.7917H22.2917C21.1092 75.7917 19.9753 76.2614 19.1392 77.0975C18.3031 77.9336 17.8333 79.0676 17.8333 80.25C17.8333 81.4324 18.3031 82.5664 19.1392 83.4025C19.9753 84.2386 21.1092 84.7083 22.2917 84.7083H26.75C27.9324 84.7083 29.0664 84.2386 29.9025 83.4025C30.7386 82.5664 31.2083 81.4324 31.2083 80.25C31.2083 79.0676 30.7386 77.9336 29.9025 77.0975C29.0664 76.2614 27.9324 75.7917 26.75 75.7917ZM49.0417 75.7917H44.5833C43.4009 75.7917 42.2669 76.2614 41.4308 77.0975C40.5947 77.9336 40.125 79.0676 40.125 80.25C40.125 81.4324 40.5947 82.5664 41.4308 83.4025C42.2669 84.2386 43.4009 84.7083 44.5833 84.7083H49.0417C50.2241 84.7083 51.3581 84.2386 52.1942 83.4025C53.0303 82.5664 53.5 81.4324 53.5 80.25C53.5 79.0676 53.0303 77.9336 52.1942 77.0975C51.3581 76.2614 50.2241 75.7917 49.0417 75.7917ZM26.75 22.2917H22.2917C21.1092 22.2917 19.9753 22.7614 19.1392 23.5975C18.3031 24.4336 17.8333 25.5676 17.8333 26.75C17.8333 27.9324 18.3031 29.0664 19.1392 29.9025C19.9753 30.7386 21.1092 31.2083 22.2917 31.2083H26.75C27.9324 31.2083 29.0664 30.7386 29.9025 29.9025C30.7386 29.0664 31.2083 27.9324 31.2083 26.75C31.2083 25.5676 30.7386 24.4336 29.9025 23.5975C29.0664 22.7614 27.9324 22.2917 26.75 22.2917ZM49.0417 22.2917H44.5833C43.4009 22.2917 42.2669 22.7614 41.4308 23.5975C40.5947 24.4336 40.125 25.5676 40.125 26.75C40.125 27.9324 40.5947 29.0664 41.4308 29.9025C42.2669 30.7386 43.4009 31.2083 44.5833 31.2083H49.0417C50.2241 31.2083 51.3581 30.7386 52.1942 29.9025C53.0303 29.0664 53.5 27.9324 53.5 26.75C53.5 25.5676 53.0303 24.4336 52.1942 23.5975C51.3581 22.7614 50.2241 22.2917 49.0417 22.2917ZM26.75 40.125H22.2917C21.1092 40.125 19.9753 40.5947 19.1392 41.4308C18.3031 42.2669 17.8333 43.4009 17.8333 44.5833C17.8333 45.7658 18.3031 46.8998 19.1392 47.7359C19.9753 48.572 21.1092 49.0417 22.2917 49.0417H26.75C27.9324 49.0417 29.0664 48.572 29.9025 47.7359C30.7386 46.8998 31.2083 45.7658 31.2083 44.5833C31.2083 43.4009 30.7386 42.2669 29.9025 41.4308C29.0664 40.5947 27.9324 40.125 26.75 40.125ZM49.0417 40.125H44.5833C43.4009 40.125 42.2669 40.5947 41.4308 41.4308C40.5947 42.2669 40.125 43.4009 40.125 44.5833C40.125 45.7658 40.5947 46.8998 41.4308 47.7359C42.2669 48.572 43.4009 49.0417 44.5833 49.0417H49.0417C50.2241 49.0417 51.3581 48.572 52.1942 47.7359C53.0303 46.8998 53.5 45.7658 53.5 44.5833C53.5 43.4009 53.0303 42.2669 52.1942 41.4308C51.3581 40.5947 50.2241 40.125 49.0417 40.125ZM107 44.5833V84.7083C106.993 90.6183 104.642 96.2841 100.463 100.463C96.2841 104.642 90.6183 106.993 84.7083 107H22.2917C16.3817 106.993 10.7159 104.642 6.5369 100.463C2.35793 96.2841 0.0070792 90.6183 0 84.7083L0 22.2917C0.0070792 16.3817 2.35793 10.7159 6.5369 6.5369C10.7159 2.35793 16.3817 0.0070792 22.2917 0L49.0417 0C54.9516 0.0070792 60.6175 2.35793 64.7964 6.5369C68.9754 10.7159 71.3263 16.3817 71.3333 22.2917H84.7083C90.6183 22.2987 96.2841 24.6496 100.463 28.8286C104.642 33.0075 106.993 38.6734 107 44.5833V44.5833ZM22.2917 98.0833H62.4167V22.2917C62.4167 18.7444 61.0075 15.3424 58.4992 12.8341C55.9909 10.3258 52.5889 8.91667 49.0417 8.91667H22.2917C18.7444 8.91667 15.3424 10.3258 12.8341 12.8341C10.3258 15.3424 8.91667 18.7444 8.91667 22.2917V84.7083C8.91667 88.2556 10.3258 91.6576 12.8341 94.1659C15.3424 96.6742 18.7444 98.0833 22.2917 98.0833ZM98.0833 44.5833C98.0833 41.0361 96.6742 37.6341 94.1659 35.1258C91.6576 32.6175 88.2556 31.2083 84.7083 31.2083H71.3333V98.0833H84.7083C88.2556 98.0833 91.6576 96.6742 94.1659 94.1659C96.6742 91.6576 98.0833 88.2556 98.0833 84.7083V44.5833ZM84.7083 57.9583C83.8266 57.9583 82.9646 58.2198 82.2314 58.7097C81.4982 59.1996 80.9268 59.8959 80.5894 60.7105C80.2519 61.5252 80.1636 62.4216 80.3357 63.2864C80.5077 64.1513 80.9323 64.9457 81.5558 65.5692C82.1793 66.1927 82.9737 66.6173 83.8386 66.7893C84.7034 66.9614 85.5998 66.8731 86.4145 66.5356C87.2291 66.1982 87.9254 65.6268 88.4153 64.8936C88.9052 64.1604 89.1667 63.2984 89.1667 62.4167C89.1667 61.2342 88.697 60.1003 87.8609 59.2642C87.0248 58.4281 85.8908 57.9583 84.7083 57.9583ZM84.7083 75.7917C83.8266 75.7917 82.9646 76.0531 82.2314 76.543C81.4982 77.0329 80.9268 77.7292 80.5894 78.5439C80.2519 79.3585 80.1636 80.255 80.3357 81.1198C80.5077 81.9846 80.9323 82.779 81.5558 83.4025C82.1793 84.026 82.9737 84.4506 83.8386 84.6227C84.7034 84.7947 85.5998 84.7064 86.4145 84.369C87.2291 84.0315 87.9254 83.4601 88.4153 82.7269C88.9052 81.9938 89.1667 81.1318 89.1667 80.25C89.1667 79.0676 88.697 77.9336 87.8609 77.0975C87.0248 76.2614 85.8908 75.7917 84.7083 75.7917ZM84.7083 40.125C83.8266 40.125 82.9646 40.3865 82.2314 40.8764C81.4982 41.3663 80.9268 42.0625 80.5894 42.8772C80.2519 43.6919 80.1636 44.5883 80.3357 45.4531C80.5077 46.3179 80.9323 47.1123 81.5558 47.7359C82.1793 48.3594 82.9737 48.784 83.8386 48.956C84.7034 49.128 85.5998 49.0397 86.4145 48.7023C87.2291 48.3649 87.9254 47.7934 88.4153 47.0603C88.9052 46.3271 89.1667 45.4651 89.1667 44.5833C89.1667 43.4009 88.697 42.2669 87.8609 41.4308C87.0248 40.5947 85.8908 40.125 84.7083 40.125Z" fill="#F8F9FA"/>
</g>
<defs>
<clipPath id="clip0_1_79">
<rect width="107" height="107" fill="white"/>
</clipPath>
</defs>
</svg>
