<svg width="107" height="107" viewBox="0 0 107 107" fill="none" xmlns="http://www.w3.org/2000/svg">
<g clip-path="url(#clip0_1_74)">
<path d="M102.987 4.01099C100.385 1.53226 96.9287 0.149658 93.3348 0.149658C89.7409 0.149658 86.2848 1.53226 83.6825 4.01099L33.7179 53.9443C32.1635 53.6451 30.584 53.4958 29.001 53.4984C25.783 53.4892 22.5951 54.1185 19.622 55.3498C16.6489 56.5812 13.9496 58.3901 11.6804 60.6719C5.65274 66.704 1.39949 82.8877 0.13778 91.6751C-0.142116 93.5761 -0.00913136 95.515 0.527679 97.36C1.06449 99.205 1.99252 100.913 3.2486 102.367C4.50468 103.821 6.05932 104.987 7.80668 105.786C9.55404 106.586 11.4531 106.999 13.3746 106.998C14.0294 106.999 14.6835 106.953 15.3318 106.86C24.1192 105.598 40.2984 101.345 46.335 95.3175C49.1695 92.4749 51.2619 88.9791 52.428 85.1379C53.5942 81.2966 53.7983 77.2276 53.0225 73.2889L102.987 23.3156C105.54 20.752 106.974 17.2813 106.974 13.6633C106.974 10.0452 105.54 6.57453 102.987 4.01099V4.01099ZM40.022 89.0135C36.7897 92.2458 24.4179 96.5436 14.0567 98.0327C13.3643 98.1327 12.658 98.0709 11.9935 97.8519C11.329 97.633 10.7244 97.263 10.227 96.771C9.73137 96.2762 9.35928 95.6717 9.14085 95.0063C8.92242 94.3409 8.8638 93.6335 8.96974 92.9413C10.4544 82.5846 14.7656 70.2038 17.9845 66.976C20.9548 64.3007 24.8386 62.8675 28.8347 62.9718C32.8308 63.0762 36.6345 64.7102 39.4611 67.5368C42.2878 70.3635 43.9218 74.1671 44.0262 78.1633C44.1305 82.1594 42.6973 86.0431 40.022 89.0135V89.0135ZM96.6919 17.0115L49.34 64.3678C47.5806 61.7039 45.307 59.4182 42.6525 57.6447L89.9866 10.3062C90.8873 9.44604 92.0849 8.9661 93.3303 8.9661C94.5758 8.9661 95.7733 9.44604 96.6741 10.3062C97.1163 10.7448 97.4677 11.2664 97.708 11.8411C97.9483 12.4158 98.0728 13.0322 98.0745 13.6551C98.0761 14.278 97.9549 14.8951 97.7176 15.4711C97.4804 16.047 97.1318 16.5705 96.6919 17.0115V17.0115Z" fill="#F8F9FA"/>
</g>
<defs>
<clipPath id="clip0_1_74">
<rect width="107" height="107" fill="white"/>
</clipPath>
</defs>
</svg>
