<svg width="107" height="107" viewBox="0 0 107 107" fill="none" xmlns="http://www.w3.org/2000/svg">
<g clip-path="url(#clip0_1_68)">
<path d="M84.7083 17.8333H82.4435L72.7065 5.20733C71.4516 3.59255 69.8457 2.28452 68.0104 1.38232C66.1751 0.480124 64.1586 0.0074144 62.1135 0L44.8865 0C42.8415 0.0074144 40.8249 0.480124 38.9896 1.38232C37.1543 2.28452 35.5484 3.59255 34.2935 5.20733L24.5565 17.8333H22.2917C16.3817 17.8404 10.7159 20.1913 6.5369 24.3702C2.35793 28.5492 0.0070792 34.2151 0 40.125L0 84.7083C0.0070792 90.6183 2.35793 96.2841 6.5369 100.463C10.7159 104.642 16.3817 106.993 22.2917 107H84.7083C90.6183 106.993 96.2841 104.642 100.463 100.463C104.642 96.2841 106.993 90.6183 107 84.7083V40.125C106.993 34.2151 104.642 28.5492 100.463 24.3702C96.2841 20.1913 90.6183 17.8404 84.7083 17.8333ZM41.3555 10.6554C41.7731 10.1162 42.3082 9.67933 42.9201 9.37803C43.532 9.07673 44.2045 8.91894 44.8865 8.91667H62.1135C62.7954 8.9196 63.4677 9.07768 64.0795 9.37893C64.6912 9.68017 65.2264 10.1167 65.6445 10.6554L71.1817 17.8333H35.8183L41.3555 10.6554ZM98.0833 84.7083C98.0833 88.2556 96.6742 91.6576 94.1659 94.1659C91.6576 96.6742 88.2556 98.0833 84.7083 98.0833H22.2917C18.7444 98.0833 15.3424 96.6742 12.8341 94.1659C10.3258 91.6576 8.91667 88.2556 8.91667 84.7083V40.125C8.91667 36.5777 10.3258 33.1757 12.8341 30.6674C15.3424 28.1591 18.7444 26.75 22.2917 26.75H84.7083C88.2556 26.75 91.6576 28.1591 94.1659 30.6674C96.6742 33.1757 98.0833 36.5777 98.0833 40.125V84.7083Z" fill="#F8F9FA"/>
<path d="M53.4998 35.6663C48.2091 35.6663 43.0373 37.2351 38.6383 40.1744C34.2392 43.1138 30.8106 47.2916 28.786 52.1795C26.7613 57.0674 26.2316 62.4459 27.2638 67.6349C28.2959 72.8239 30.8436 77.5903 34.5847 81.3314C38.3257 85.0724 43.0921 87.6201 48.2811 88.6523C53.4701 89.6844 58.8486 89.1547 63.7366 87.13C68.6245 85.1054 72.8023 81.6768 75.7416 77.2778C78.6809 72.8787 80.2498 67.7069 80.2498 62.4163C80.2427 55.3239 77.4221 48.524 72.4071 43.509C67.392 38.4939 60.5921 35.6733 53.4998 35.6663ZM53.4998 80.2496C49.9727 80.2496 46.5248 79.2037 43.5921 77.2441C40.6594 75.2846 38.3737 72.4994 37.0239 69.2408C35.6742 65.9822 35.321 62.3965 36.0091 58.9372C36.6972 55.4778 38.3957 52.3002 40.8897 49.8062C43.3837 47.3122 46.5613 45.6137 50.0207 44.9256C53.48 44.2375 57.0657 44.5906 60.3243 45.9404C63.5829 47.2902 66.3681 49.5759 68.3276 52.5086C70.2872 55.4413 71.3331 58.8892 71.3331 62.4163C71.3331 67.146 69.4542 71.6819 66.1098 75.0263C62.7654 78.3707 58.2295 80.2496 53.4998 80.2496Z" fill="#F8F9FA"/>
</g>
<defs>
<clipPath id="clip0_1_68">
<rect width="107" height="107" fill="white"/>
</clipPath>
</defs>
</svg>
