<svg viewBox="0 0 69 69" fill="none" xmlns="http://www.w3.org/2000/svg">
<path d="M67.1984 32.8338C67.2044 32.8338 67.2089 32.8338 67.2149 32.8338C67.6334 32.8338 68.0324 32.6583 68.3159 32.3508C68.6039 32.0388 68.7464 31.6203 68.7089 31.1973C67.2029 14.6328 54.0884 1.51383 37.5224 0.00483391C37.1024 -0.0281661 36.6794 0.108334 36.3674 0.397834C36.0554 0.685834 35.8814 1.09233 35.8859 1.51683C36.1469 23.5308 39.0509 32.5263 67.1984 32.8338ZM67.1984 35.8758C39.0509 36.1833 36.1484 45.1788 35.8874 67.1928C35.8829 67.6173 36.0569 68.0238 36.3689 68.3118C36.6479 68.5683 37.0124 68.7108 37.3874 68.7108C37.4324 68.7108 37.4789 68.7093 37.5239 68.7048C54.0899 67.1958 67.2044 54.0783 68.7089 37.5123C68.7464 37.0893 68.6054 36.6708 68.3159 36.3588C68.0264 36.0468 67.6229 35.8923 67.1984 35.8758ZM31.0919 0.0123341C14.5784 1.56483 1.5059 14.6808 0.00739885 31.2003C-0.0301011 31.6233 0.110899 32.0418 0.400399 32.3538C0.683899 32.6613 1.0844 32.8353 1.5014 32.8353C1.5074 32.8353 1.5134 32.8353 1.5194 32.8353C29.5739 32.5128 32.4704 23.5218 32.7344 1.52283C32.7389 1.09833 32.5634 0.690334 32.2514 0.402334C31.9364 0.114334 31.5149 -0.0266659 31.0919 0.0123341ZM1.5179 35.8743C1.0514 35.8218 0.685399 36.0438 0.398899 36.3558C0.110899 36.6678 -0.031601 37.0863 0.00589896 37.5093C1.5044 54.0288 14.5784 67.1448 31.0919 68.6973C31.1384 68.7018 31.1864 68.7033 31.2329 68.7033C31.6079 68.7033 31.9709 68.5623 32.2499 68.3058C32.5619 68.0178 32.7374 67.6098 32.7329 67.1853C32.4689 45.1878 29.5739 36.1968 1.5179 35.8743Z" fill="currentColor"/>
</svg>
