<svg viewBox="0 0 66 66" fill="none" xmlns="http://www.w3.org/2000/svg">
<path d="M19.5 0C8.745 0 0 8.745 0 19.5V46.5C0 57.255 8.745 66 19.5 66H46.5C57.255 66 66 57.255 66 46.5V19.5C66 8.745 57.255 0 46.5 0H19.5ZM51 12C52.65 12 54 13.35 54 15C54 16.65 52.65 18 51 18C49.35 18 48 16.65 48 15C48 13.35 49.35 12 51 12ZM33 16.5C42.105 16.5 49.5 23.895 49.5 33C49.5 42.105 42.105 49.5 33 49.5C23.895 49.5 16.5 42.105 16.5 33C16.5 23.895 23.895 16.5 33 16.5ZM33 19.5C25.56 19.5 19.5 25.56 19.5 33C19.5 40.44 25.56 46.5 33 46.5C40.44 46.5 46.5 40.44 46.5 33C46.5 25.56 40.44 19.5 33 19.5Z" fill="currentColor"/>
</svg>
