<svg viewBox="0 0 63 63" fill="none" xmlns="http://www.w3.org/2000/svg">
<path d="M7.5 0C3.36 0 0 3.36 0 7.5V55.5C0 59.64 3.36 63 7.5 63H55.5C59.64 63 63 59.64 63 55.5V7.5C63 3.36 59.64 0 55.5 0H7.5ZM31.5 7.5C38.13 7.5 43.5 12.87 43.5 19.5C43.5 26.13 38.13 31.5 31.5 31.5C24.87 31.5 19.5 26.13 19.5 19.5C19.5 12.87 24.87 7.5 31.5 7.5ZM31.5 13.5C29.9087 13.5 28.3826 14.1321 27.2574 15.2574C26.1321 16.3826 25.5 17.9087 25.5 19.5C25.5 21.0913 26.1321 22.6174 27.2574 23.7426C28.3826 24.8679 29.9087 25.5 31.5 25.5C33.0913 25.5 34.6174 24.8679 35.7426 23.7426C36.8679 22.6174 37.5 21.0913 37.5 19.5C37.5 17.9087 36.8679 16.3826 35.7426 15.2574C34.6174 14.1321 33.0913 13.5 31.5 13.5ZM43.5 33.7354C44.445 33.7354 45.3759 34.1844 45.9609 35.0244C46.9059 36.3744 46.5759 38.2513 45.2109 39.1963C42.9609 40.7713 40.485 41.9099 37.875 42.6299L45.6152 50.3848C46.8002 51.5548 46.8002 53.4452 45.6152 54.6152C45.0302 55.2002 44.265 55.5 43.5 55.5C42.735 55.5 41.9698 55.2002 41.3848 54.6152L31.5 44.7451L21.6152 54.6152C21.0302 55.2002 20.265 55.5 19.5 55.5C18.735 55.5 17.9698 55.2002 17.3848 54.6152C16.1998 53.4452 16.1998 51.5548 17.3848 50.3848L25.125 42.6299C22.53 41.9099 20.0537 40.7859 17.8037 39.2109C16.4537 38.2659 16.1087 36.4041 17.0537 35.0391C17.6387 34.1991 18.5693 33.75 19.5293 33.75C20.1143 33.75 20.7152 33.9291 21.2402 34.2891C24.2552 36.3891 27.81 37.5 31.5 37.5C35.205 37.5 38.7591 36.3894 41.7891 34.2744C42.2991 33.9144 42.9 33.7354 43.5 33.7354Z" fill="currentColor"/>
</svg>
