<svg viewBox="0 0 66 60" fill="none" xmlns="http://www.w3.org/2000/svg">
<path d="M64.7067 0.824822C63.5817 -0.129178 61.8147 -0.265678 59.9877 0.467822H59.9847C58.0632 1.23882 5.59321 23.7448 3.45721 24.6643C3.06871 24.7993 -0.324287 26.0653 0.0252133 28.8853C0.337213 31.4278 3.06421 32.4808 3.39721 32.6023L16.7367 37.1698C17.6217 40.1158 20.8842 50.9848 21.6057 53.3068C22.0557 54.7543 22.7892 56.6563 24.0747 57.0478C25.2027 57.4828 26.3247 57.0853 27.0507 56.5153L35.2062 48.9508L48.3717 59.2183L48.6852 59.4058C49.5792 59.8018 50.4357 59.9998 51.2532 59.9998C51.8847 59.9998 52.4907 59.8813 53.0697 59.6443C55.0422 58.8343 55.8312 56.9548 55.9137 56.7418L65.7477 5.62632C66.3477 2.89632 65.5137 1.50732 64.7067 0.824822ZM28.5012 38.9968L24.0012 50.9968L19.5012 35.9968L54.0012 10.4968L28.5012 38.9968Z" fill="currentColor"/>
</svg>
