<svg viewBox="0 0 63 63" fill="none" xmlns="http://www.w3.org/2000/svg">
<path d="M55.5 0H7.5C3.3645 0 0 3.3645 0 7.5V55.5C0 59.6355 3.3645 63 7.5 63H55.5C59.6355 63 63 59.6355 63 55.5V7.5C63 3.3645 59.6355 0 55.5 0ZM49.509 27.4845C49.1685 27.516 48.8235 27.537 48.474 27.537C44.5395 27.537 41.082 25.5135 39.0705 22.455C39.0705 30.4785 39.0705 39.6075 39.0705 39.7605C39.0705 46.824 33.3435 52.551 26.28 52.551C19.2165 52.551 13.4895 46.824 13.4895 39.7605C13.4895 32.697 19.2165 26.97 26.28 26.97C26.547 26.97 26.808 26.994 27.0705 27.0105V33.3135C26.808 33.282 26.55 33.234 26.28 33.234C22.674 33.234 19.752 36.156 19.752 39.762C19.752 43.368 22.674 46.29 26.28 46.29C29.886 46.29 33.0705 43.449 33.0705 39.843C33.0705 39.7005 33.1335 10.452 33.1335 10.452H39.1575C39.7245 15.8385 44.073 20.0895 49.509 20.4795V27.4845Z" fill="currentColor"/>
</svg>
