<svg viewBox="0 0 63 63" fill="none" xmlns="http://www.w3.org/2000/svg">
<path d="M55.5 0H7.5C3.36 0 0 3.36 0 7.5V55.5C0 59.64 3.36 63 7.5 63H55.5C59.64 63 63 59.64 63 55.5V7.5C63 3.36 59.64 0 55.5 0ZM50.58 43.5L44.985 43.485C44.985 43.485 44.865 43.5 44.67 43.5C44.22 43.5 43.29 43.38 42.195 42.63C40.23 41.265 38.355 37.875 36.87 37.875C36.765 37.875 36.675 37.89 36.585 37.92C35.295 38.325 34.905 39.615 34.905 41.19C34.905 41.745 34.515 42 33.465 42H30.57C27.33 42 24.195 41.925 20.67 38.07C15.48 32.385 10.62 22.275 10.62 22.275C10.62 22.275 10.35 21.69 10.635 21.345C10.905 21.03 11.535 21 11.775 21C11.835 21 11.865 21 11.865 21H17.865C17.865 21 18.42 21.105 18.825 21.405C19.17 21.66 19.35 22.125 19.35 22.125C19.35 22.125 20.37 24.105 21.645 26.34C23.79 30.03 24.945 31.26 25.77 31.26C25.905 31.26 26.04 31.23 26.175 31.155C27.405 30.48 27.045 25.02 27.045 25.02C27.045 25.02 27.06 23.04 26.415 22.17C25.92 21.48 24.975 21.285 24.555 21.225C24.225 21.18 24.765 20.4 25.485 20.04C26.415 19.59 27.96 19.5 29.82 19.5H30.72C32.475 19.53 32.52 19.71 33.21 19.875C35.28 20.37 34.575 22.305 34.575 26.94C34.575 28.425 34.305 30.51 35.37 31.215C35.445 31.26 35.55 31.29 35.685 31.29C36.375 31.29 37.86 30.405 40.23 26.4C41.55 24.12 42.57 21.855 42.57 21.855C42.57 21.855 42.795 21.45 43.14 21.24C43.47 21.045 43.47 21.045 43.905 21.045H43.95C44.43 21.045 49.2 21 50.25 21H50.37C51.375 21 52.29 21.015 52.455 21.63C52.695 22.56 51.72 24.225 49.155 27.675C44.925 33.33 44.445 32.91 47.955 36.18C51.315 39.3 52.005 40.815 52.125 41.01C53.52 43.32 50.58 43.5 50.58 43.5Z" fill="currentColor"/>
</svg>
