<svg viewBox="0 0 65 48" fill="none" xmlns="http://www.w3.org/2000/svg">
<path d="M62.8477 8.25C62.25 4.95117 59.4023 2.54883 56.0977 1.79883C51.1523 0.75 42 0 32.0977 0C22.2012 0 12.9023 0.75 7.95117 1.79883C4.65234 2.54883 1.79883 4.79883 1.20117 8.25C0.597657 12 0 17.25 0 24C0 30.75 0.597657 36 1.34766 39.75C1.95117 43.0488 4.79883 45.4512 8.09766 46.2012C13.3477 47.25 22.3477 48 32.25 48C42.1523 48 51.1523 47.25 56.4023 46.2012C59.7012 45.4512 62.5488 43.2012 63.1523 39.75C63.75 36 64.5 30.5977 64.6523 24C64.3477 17.25 63.5977 12 62.8477 8.25ZM24 34.5V13.5L42.2988 24L24 34.5Z" fill="currentColor"/>
</svg>
