<svg width="424" height="91" viewBox="0 0 424 91" fill="none" xmlns="http://www.w3.org/2000/svg">
<path d="M22.1633 70.96C21.3704 70.96 20.6523 71.4284 20.3328 72.1542L13.7729 87.0547C12.9741 88.8689 11.179 90.04 9.19671 90.04H5.00558C1.39417 90.04 -1.02613 86.3287 0.430066 83.0239L31.669 12.1278C33.2671 8.50083 36.8565 6.16002 40.82 6.16002H42.8971C46.8606 6.16002 50.45 8.50084 52.0481 12.1278L83.2871 83.0239C84.7433 86.3287 82.323 90.04 78.7116 90.04H74.5204C72.5381 90.04 70.743 88.8689 69.9443 87.0547L63.3843 72.1542C63.0648 71.4284 62.3467 70.96 61.5538 70.96H22.1633ZM54.0308 57.88C55.4756 57.88 56.4437 56.395 55.8608 55.073L43.6885 27.4699C42.9871 25.8792 40.7301 25.8792 40.0286 27.4699L27.8564 55.073C27.2734 56.395 28.2415 57.88 29.6863 57.88H54.0308Z" fill="#F8F9FA"/>
<path d="M122.839 37C116.339 39.5 115.179 40.96 111.819 45.28C108.459 49.6 106.779 55.4 106.779 62.68V85.04C106.779 87.8014 104.54 90.04 101.779 90.04H98.3386C95.5771 90.04 93.3386 87.8014 93.3386 85.04V31.2C93.3386 28.4386 95.5771 26.2 98.3386 26.2H101.805C104.556 26.2 106.79 28.4225 106.805 31.1735L106.839 37.5C109.839 33.5 112.428 31.319 115.339 29.5C117.45 28.1803 119.562 27.2786 121.685 26.6095C124.61 25.6879 127.419 28.0721 127.419 31.1387V31.3579C127.419 33.9438 125.252 36.0717 122.839 37Z" fill="#F8F9FA"/>
<path d="M158.819 36.04C157.162 36.04 155.819 37.3832 155.819 39.04V68.44C155.819 71.48 156.619 73.92 158.219 75.76C159.819 77.52 162.059 78.4 164.939 78.4C166.725 78.4 168.465 77.8615 170.158 76.7846C171.85 75.709 174.23 75.9378 175.239 77.6702L177.51 81.5702C178.226 82.799 177.991 84.3768 176.858 85.2364C172.638 88.4388 168.024 90.04 163.019 90.04C157.339 90.04 152.459 88.08 148.379 84.16C144.379 80.16 142.379 74.8 142.379 68.08V39.04C142.379 37.3832 141.02 36.04 139.364 36.04C136.602 36.04 134.339 33.8014 134.339 31.04V30.24C134.339 27.4786 136.602 25.24 139.364 25.24C141.02 25.24 142.379 23.8969 142.379 22.24V10.2C142.379 7.4386 144.617 5.20002 147.379 5.20002H150.819C153.58 5.20002 155.819 7.4386 155.819 10.2V22.24C155.819 23.8969 157.162 25.24 158.819 25.24H167.619C170.38 25.24 172.619 27.4786 172.619 30.24V31.04C172.619 33.8014 170.38 36.04 167.619 36.04H158.819Z" fill="#F8F9FA"/>
<path d="M206.852 63.6589C207.17 64.5689 208.465 64.5457 208.751 63.6249L224.689 12.2346C225.809 8.62224 229.151 6.16002 232.933 6.16002C236.715 6.16002 240.056 8.62225 241.177 12.2346L257.115 63.6249C257.4 64.5457 258.695 64.5689 259.014 63.6589L277.961 9.50869C278.663 7.50304 280.555 6.16002 282.68 6.16002H287.331C290.774 6.16002 293.187 9.55769 292.052 12.8079L267.36 83.545C266.002 87.4346 262.333 90.04 258.213 90.04C253.958 90.04 250.2 87.2628 248.952 83.1945L233.553 33.0189C233.47 32.7462 233.218 32.56 232.933 32.56C232.647 32.56 232.396 32.7462 232.312 33.0189L216.913 83.1945C215.665 87.2628 211.908 90.04 207.652 90.04C203.532 90.04 199.863 87.4346 198.505 83.545L173.813 12.8079C172.679 9.5577 175.091 6.16002 178.534 6.16002H183.185C185.31 6.16002 187.203 7.50304 187.904 9.50869L206.852 63.6589Z" fill="#F59E0B"/>
<path d="M351.339 58.04C351.339 60.8014 349.1 63.04 346.339 63.04H301.299C301.619 67.68 303.739 71.44 307.659 74.32C311.579 77.12 316.059 78.52 321.099 78.52C327.668 78.52 332.943 76.8205 336.923 73.4216C338.31 72.2374 340.438 72.1625 341.668 73.5083L343.847 75.8915C345.63 77.8408 345.612 80.8771 343.541 82.5165C337.205 87.5322 329.405 90.04 320.139 90.04C311.179 90.04 303.539 87.08 297.219 81.16C290.979 75.16 287.859 67.16 287.859 57.16C287.859 47.08 291.059 39.08 297.459 33.16C303.859 27.24 311.379 24.28 320.019 24.28C328.739 24.28 336.139 26.92 342.219 32.2C348.299 37.4 351.339 44.6 351.339 53.8V58.04ZM301.404 50.4832C301.285 51.5813 302.194 52.48 303.299 52.48H335.899C337.003 52.48 337.91 51.5826 337.816 50.482C337.441 46.0852 335.788 42.6312 332.859 40.12C329.499 37.24 325.339 35.8 320.379 35.8C315.499 35.8 311.099 37.32 307.179 40.36C303.783 42.924 301.858 46.2984 301.404 50.4832Z" fill="#F59E0B"/>
<path d="M392.539 24.24C401.099 24.24 408.419 27.2 414.499 33.12C420.579 39.04 423.619 46.92 423.619 56.76C423.619 66.6 420.579 74.6 414.499 80.76C408.499 86.92 401.459 90 393.379 90C385.379 90 401.073 90.04 391.339 90.04C373.107 90.0179 358.339 75.2319 358.339 57V5C358.339 2.23858 360.577 0 363.339 0H366.779C369.54 0 371.779 2.23858 371.779 5V36.36C377.059 28.28 383.979 24.24 392.539 24.24ZM371.539 57.24C371.539 63.32 373.379 68.32 377.059 72.24C380.739 76.08 385.219 78 390.499 78C395.779 78 400.379 76.08 404.299 72.24C408.219 68.4 410.179 63.44 410.179 57.36C410.179 51.2 408.259 46.12 404.419 42.12C400.579 38.04 395.979 36 390.619 36C385.259 36 380.739 38.04 377.059 42.12C373.379 46.12 371.539 51.16 371.539 57.24Z" fill="#F59E0B"/>
</svg>
