<svg width="51" height="23" viewBox="0 0 51 23" fill="none" xmlns="http://www.w3.org/2000/svg">
<path d="M6.07719 17.7682C5.85978 17.7682 5.6629 17.8966 5.57529 18.0956L3.77653 22.1815C3.55753 22.6789 3.06531 23 2.52176 23H1.37253C0.382282 23 -0.281367 21.9824 0.117922 21.0762L8.68367 1.63638C9.12189 0.64185 10.1061 0 11.1929 0H11.7625C12.8492 0 13.8334 0.64185 14.2717 1.63638L22.8374 21.0762C23.2367 21.9824 22.5731 23 21.5828 23H20.4336C19.89 23 19.3978 22.6789 19.1788 22.1815L17.38 18.0956C17.2924 17.8966 17.0956 17.7682 16.8781 17.7682H6.07719ZM14.8153 14.1817C15.2115 14.1817 15.4769 13.7745 15.3171 13.412L11.9795 5.8432C11.7871 5.40703 11.1682 5.40703 10.9759 5.8432L7.63825 13.412C7.47839 13.7745 7.74387 14.1817 8.14003 14.1817H14.8153Z" fill="#6366F1"/>
<path d="M27.0339 15.7663C27.1211 16.0158 27.4762 16.0095 27.5546 15.757L31.9248 1.66566C32.2319 0.675138 33.1483 0 34.1854 0C35.2224 0 36.1388 0.675138 36.4459 1.66566L40.8161 15.757C40.8945 16.0095 41.2496 16.0158 41.3368 15.7663L46.5321 0.918218C46.7246 0.368253 47.2436 0 47.8263 0H49.1016C50.0454 0 50.7071 0.931654 50.3961 1.82283L43.6253 21.2191C43.2532 22.2857 42.2469 23 41.1174 23C39.9504 23 38.9203 22.2385 38.5778 21.1228L34.3556 7.36474C34.3326 7.28997 34.2635 7.23891 34.1854 7.23891C34.1072 7.23891 34.0381 7.28997 34.0151 7.36474L29.7929 21.1228C29.4505 22.2385 28.4203 23 27.2533 23C26.1238 23 25.1177 22.2857 24.7454 21.2191L17.9747 1.82283C17.6637 0.931654 18.3252 0 19.2692 0H20.5445C21.1271 0 21.6461 0.368253 21.8386 0.918218L27.0339 15.7663Z" fill="#F59E0B"/>
</svg>
