<svg width="16" height="16" viewBox="0 0 16 16" fill="none" xmlns="http://www.w3.org/2000/svg">
<path d="M11.3739 6.34992L8.98325 3.95926C8.79566 3.77175 8.54125 3.66644 8.27602 3.6665C8.01078 3.66657 7.75643 3.77199 7.56892 3.95959C7.38141 4.14718 7.2761 4.40159 7.27617 4.66682C7.27623 4.93206 7.38166 5.18641 7.56925 5.37392L9.19525 6.99992H3.33325C3.06804 6.99992 2.81368 7.10528 2.62615 7.29281C2.43861 7.48035 2.33325 7.73471 2.33325 7.99992C2.33325 8.26514 2.43861 8.51949 2.62615 8.70703C2.81368 8.89457 3.06804 8.99992 3.33325 8.99992H9.19525L7.56925 10.6259C7.38166 10.8134 7.27623 11.0678 7.27617 11.333C7.2761 11.5983 7.38141 11.8527 7.56892 12.0403C7.75643 12.2279 8.01078 12.3333 8.27602 12.3333C8.54125 12.3334 8.79566 12.2281 8.98325 12.0406L11.3739 9.64992C11.8107 9.2119 12.056 8.61853 12.056 7.99992C12.056 7.38131 11.8107 6.78795 11.3739 6.34992Z" fill="white"/>
</svg>
