<svg viewBox="0 0 18 24" fill="none" xmlns="http://www.w3.org/2000/svg">
<path d="M14.9993 2.28607C13.7787 1.19561 12.2839 0.458655 10.6756 0.154503C9.06739 -0.14965 7.40666 -0.00947863 5.87216 0.559931C4.33765 1.12934 2.98748 2.10643 1.96693 3.38604C0.946383 4.66566 0.294108 6.19935 0.0802996 7.82207C-0.111721 9.24492 0.0418512 10.6931 0.528018 12.044C1.01419 13.3949 1.81864 14.6089 2.8733 15.5831C3.5255 16.155 4.05178 16.8562 4.41878 17.6422C4.78579 18.4282 4.98551 19.2818 5.0053 20.1491V20.3101C5.00636 21.2884 5.39546 22.2263 6.08724 22.9181C6.77903 23.6099 7.71698 23.999 8.6953 24.0001H9.3153C10.2936 23.999 11.2316 23.6099 11.9234 22.9181C12.6151 22.2263 13.0042 21.2884 13.0053 20.3101V19.7611C13.0203 18.9945 13.2007 18.2403 13.5341 17.5499C13.8676 16.8595 14.3462 16.2493 14.9373 15.7611C15.8959 14.9215 16.6651 13.8878 17.1941 12.7286C17.723 11.5693 17.9996 10.3108 18.0054 9.03654C18.0113 7.76229 17.7463 6.50134 17.2281 5.33723C16.7098 4.17311 15.9501 3.13241 14.9993 2.28407V2.28607ZM9.3153 22.0001H8.6953C8.24725 21.9995 7.8177 21.8213 7.50087 21.5045C7.18405 21.1877 7.00583 20.7581 7.0053 20.3101C7.0053 20.3101 6.9983 20.0501 6.9973 20.0001H11.0053V20.3101C11.0048 20.7581 10.8265 21.1877 10.5097 21.5045C10.1929 21.8213 9.76335 21.9995 9.3153 22.0001ZM13.6153 14.2591C12.4767 15.2466 11.6545 16.5478 11.2513 18.0001H10.0053V10.8161C10.5882 10.61 11.0932 10.2288 11.4512 9.72477C11.8092 9.2207 12.0027 8.61833 12.0053 8.00007C12.0053 7.73486 11.8999 7.4805 11.7124 7.29296C11.5249 7.10543 11.2705 7.00007 11.0053 7.00007C10.7401 7.00007 10.4857 7.10543 10.2982 7.29296C10.1107 7.4805 10.0053 7.73486 10.0053 8.00007C10.0053 8.26529 9.89994 8.51964 9.71241 8.70718C9.52487 8.89471 9.27052 9.00007 9.0053 9.00007C8.74008 9.00007 8.48573 8.89471 8.29819 8.70718C8.11066 8.51964 8.0053 8.26529 8.0053 8.00007C8.0053 7.73486 7.89994 7.4805 7.71241 7.29296C7.52487 7.10543 7.27052 7.00007 7.0053 7.00007C6.74008 7.00007 6.48573 7.10543 6.29819 7.29296C6.11066 7.4805 6.0053 7.73486 6.0053 8.00007C6.00786 8.61833 6.20138 9.2207 6.55939 9.72477C6.91739 10.2288 7.42239 10.61 8.0053 10.8161V18.0001H6.6833C6.23229 16.5093 5.38642 15.1683 4.2353 14.1191C3.25825 13.2087 2.56202 12.0378 2.22877 10.7446C1.89551 9.45134 1.93914 8.08979 2.35451 6.82057C2.76987 5.55134 3.53964 4.42742 4.57297 3.58143C5.60629 2.73545 6.86006 2.2027 8.1863 2.04607C8.46123 2.01538 8.73766 2.00002 9.0143 2.00007C10.7319 1.99497 12.39 2.6287 13.6663 3.77807C14.406 4.43767 14.997 5.24696 15.4002 6.1523C15.8035 7.05763 16.0096 8.03834 16.0051 9.02939C16.0005 10.0204 15.7854 10.9992 15.3739 11.9008C14.9624 12.8024 14.364 13.6063 13.6183 14.2591H13.6153Z" fill="currentColor"/>
</svg>
