<svg viewBox="0 0 24 24" fill="none" xmlns="http://www.w3.org/2000/svg">
  <path d="M21 10H3M16 2V6M8 2V6M10.5 14L12 13V18" stroke="currentColor" stroke-width="1.5" stroke-linecap="round" stroke-linejoin="round"/>
  <path d="M7.5 22H6.2C5.0799 22 4.51984 22 4.09202 21.782C3.71569 21.5903 3.40973 21.2843 3.21799 20.908C3 20.4802 3 19.9201 3 18.8V8.2C3 7.0799 3 6.51984 3.21799 6.09202C3.40973 5.71569 3.71569 5.40973 4.09202 5.21799C4.51984 5 5.0799 5 6.2 5H17.8C18.9201 5 19.4802 5 19.908 5.21799C20.2843 5.40973 20.5903 5.71569 20.782 6.09202C21 6.51984 21 7.0799 21 8.2V11.5" stroke="currentColor" stroke-width="1.5" stroke-linecap="round" stroke-linejoin="round"/>
  <circle cx="17" cy="17" r="5" stroke="currentColor" stroke-width="1.5"/>
</svg>
