<svg width="11" height="7" viewBox="0 0 11 7" fill="none" xmlns="http://www.w3.org/2000/svg">
<path d="M0.82984 6.32149H10.1465C10.3113 6.3208 10.4722 6.27125 10.6089 6.17912C10.7455 6.08698 10.8518 5.95639 10.9142 5.80387C10.9767 5.65134 10.9925 5.48372 10.9597 5.32221C10.9268 5.1607 10.8469 5.01255 10.7298 4.89649L6.07984 0.246498C6.00237 0.168391 5.9102 0.106396 5.80865 0.0640892C5.7071 0.021782 5.59818 0 5.48817 0C5.37816 0 5.26924 0.021782 5.16769 0.0640892C5.06614 0.106396 4.97398 0.168391 4.89651 0.246498L0.246506 4.89649C0.129488 5.01255 0.0495125 5.1607 0.0166915 5.32221C-0.0161295 5.48372 -0.000321766 5.65134 0.0621162 5.80387C0.124554 5.95639 0.230818 6.08698 0.367471 6.17912C0.504124 6.27125 0.665029 6.3208 0.82984 6.32149V6.32149Z" fill="black"/>
</svg>
