<svg viewBox="0 0 11 7" fill="none" xmlns="http://www.w3.org/2000/svg">
<path d="M0.82984 0H10.1465C10.3113 0.000691025 10.4722 0.0502367 10.6089 0.142372C10.7455 0.234508 10.8518 0.365096 10.9142 0.517623C10.9767 0.670149 10.9925 0.837765 10.9597 0.999276C10.9268 1.16079 10.8469 1.30894 10.7298 1.425L6.07984 6.07499C6.00237 6.1531 5.9102 6.21509 5.80865 6.2574C5.7071 6.29971 5.59818 6.32149 5.48817 6.32149C5.37816 6.32149 5.26924 6.29971 5.16769 6.2574C5.06614 6.21509 4.97398 6.1531 4.89651 6.07499L0.246506 1.425C0.129488 1.30894 0.0495125 1.16079 0.0166915 0.999276C-0.0161295 0.837765 -0.000321766 0.670149 0.0621162 0.517623C0.124554 0.365096 0.230818 0.234508 0.367471 0.142372C0.504124 0.0502367 0.665029 0.000691025 0.82984 0V0Z" fill="currentColor"/>
</svg>
