<svg width="32" height="32" viewBox="0 0 32 32" fill="none" xmlns="http://www.w3.org/2000/svg">
<g clip-path="url(#clip0_66_635)">
<path d="M29.0266 11.931C28.809 11.8532 28.6102 11.7306 28.443 11.5711C28.2758 11.4117 28.144 11.2188 28.056 11.0052C27.968 10.7915 27.9259 10.5618 27.9323 10.3308C27.9387 10.0998 27.9936 9.87278 28.0933 9.66434C28.4759 8.85909 28.6 7.95513 28.4484 7.07656C28.2968 6.19799 27.8771 5.38785 27.2467 4.75736C26.6164 4.12686 25.8063 3.70691 24.9278 3.55513C24.0493 3.40336 23.1453 3.52721 22.3399 3.90968C22.1315 4.00918 21.9044 4.06386 21.6735 4.07017C21.4426 4.07649 21.2129 4.03431 20.9993 3.94636C20.7857 3.85841 20.593 3.72663 20.4334 3.55955C20.2739 3.39247 20.1512 3.19379 20.0733 2.97634C19.7735 2.13778 19.2219 1.41239 18.4939 0.899505C17.7659 0.386621 16.8971 0.111328 16.0066 0.111328C15.1161 0.111328 14.2473 0.386621 13.5193 0.899505C12.7913 1.41239 12.2397 2.13778 11.9399 2.97634C11.8621 3.19392 11.7395 3.39274 11.5801 3.55994C11.4206 3.72714 11.2278 3.85899 11.0141 3.94697C10.8005 4.03495 10.5707 4.07709 10.3397 4.07066C10.1088 4.06424 9.88171 4.00939 9.67327 3.90968C8.8675 3.52417 7.96202 3.398 7.08156 3.54855C6.2011 3.69909 5.38898 4.11894 4.75708 4.75027C4.12517 5.38159 3.70457 6.19332 3.55321 7.07364C3.40185 7.95396 3.52718 8.85955 3.91194 9.66568C4.01187 9.87408 4.06688 10.1012 4.07341 10.3322C4.07994 10.5632 4.03784 10.7931 3.94984 11.0068C3.86184 11.2205 3.7299 11.4133 3.56258 11.5728C3.39527 11.7322 3.19631 11.8547 2.9786 11.9323C2.14064 12.2327 1.41592 12.7846 0.903558 13.5125C0.391196 14.2404 0.116211 15.1088 0.116211 15.999C0.116211 16.8892 0.391196 17.7576 0.903558 18.4855C1.41592 19.2135 2.14064 19.7653 2.9786 20.0657C3.19676 20.1428 3.39628 20.2649 3.5642 20.4241C3.73213 20.5833 3.86471 20.776 3.95334 20.9897C4.04198 21.2034 4.08469 21.4334 4.07871 21.6647C4.07272 21.896 4.01817 22.1235 3.9186 22.3323C3.53572 23.1371 3.41126 24.0406 3.56231 24.9189C3.71336 25.7972 4.13251 26.6073 4.76224 27.2379C5.39198 27.8685 6.20143 28.2888 7.07952 28.441C7.95762 28.5933 8.86131 28.4701 9.6666 28.0883C9.87504 27.9886 10.1021 27.9338 10.3331 27.9274C10.564 27.9209 10.7938 27.9631 11.0074 28.0511C11.2211 28.139 11.4139 28.2709 11.5734 28.4381C11.7329 28.6053 11.8555 28.8041 11.9333 29.0217C12.233 29.8602 12.7847 30.5856 13.5127 31.0985C14.2407 31.6114 15.1094 31.8867 15.9999 31.8867C16.8905 31.8867 17.7592 31.6114 18.4872 31.0985C19.2152 30.5856 19.7669 29.8602 20.0666 29.0217C20.1444 28.8041 20.267 28.6053 20.4265 28.4381C20.586 28.2709 20.7788 28.139 20.9924 28.0511C21.2061 27.9631 21.4358 27.9209 21.6668 27.9274C21.8978 27.9338 22.1248 27.9886 22.3333 28.0883C23.1385 28.471 24.0425 28.5951 24.9211 28.4435C25.7996 28.2919 26.6098 27.8722 27.2403 27.2418C27.8708 26.6115 28.2907 25.8014 28.4425 24.9229C28.5943 24.0443 28.4704 23.1404 28.0879 22.335C27.9884 22.1265 27.9338 21.8995 27.9274 21.6686C27.9211 21.4377 27.9633 21.208 28.0513 20.9944C28.1392 20.7808 28.271 20.588 28.4381 20.4285C28.6051 20.269 28.8038 20.1463 29.0213 20.0683C29.8598 19.7686 30.5852 19.2169 31.0981 18.489C31.611 17.761 31.8863 16.8922 31.8863 16.0017C31.8863 15.1112 31.611 14.2424 31.0981 13.5144C30.5852 12.7864 29.8598 12.2348 29.0213 11.935L29.0266 11.931Z" fill="#F8F9FA"/>
</g>
<g clip-path="url(#clip1_66_635)">
<path d="M22.0194 11.5848L13.9583 19.6453C13.9041 19.6997 13.8397 19.7428 13.7688 19.7723C13.6978 19.8018 13.6218 19.8169 13.545 19.8169C13.4682 19.8169 13.3922 19.8018 13.3212 19.7723C13.2503 19.7428 13.1859 19.6997 13.1317 19.6453L10.0144 16.525C9.96017 16.4706 9.89576 16.4274 9.82484 16.398C9.75391 16.3685 9.67787 16.3533 9.60107 16.3533C9.52428 16.3533 9.44823 16.3685 9.37731 16.398C9.30639 16.4274 9.24198 16.4706 9.18778 16.525C9.13337 16.5792 9.0902 16.6436 9.06074 16.7145C9.03128 16.7855 9.01611 16.8615 9.01611 16.9383C9.01611 17.0151 9.03128 17.0911 9.06074 17.1621C9.0902 17.233 9.13337 17.2974 9.18778 17.3516L12.3063 20.4695C12.6353 20.7979 13.0811 20.9823 13.5459 20.9823C14.0107 20.9823 14.4565 20.7979 14.7854 20.4695L22.846 12.4108C22.9003 12.3566 22.9434 12.2922 22.9728 12.2213C23.0022 12.1505 23.0173 12.0745 23.0173 11.9978C23.0173 11.921 23.0022 11.8451 22.9728 11.7742C22.9434 11.7033 22.9003 11.6389 22.846 11.5848C22.7918 11.5303 22.7273 11.4872 22.6564 11.4577C22.5855 11.4283 22.5095 11.4131 22.4327 11.4131C22.3559 11.4131 22.2798 11.4283 22.2089 11.4577C22.138 11.4872 22.0736 11.5303 22.0194 11.5848Z" fill="#667EEA"/>
</g>
<defs>
<clipPath id="clip0_66_635">
<rect width="32" height="32" fill="white"/>
</clipPath>
<clipPath id="clip1_66_635">
<rect width="14" height="14" fill="white" transform="translate(9 9)"/>
</clipPath>
</defs>
</svg>
