<svg viewBox="0 0 20 20" fill="none" xmlns="http://www.w3.org/2000/svg">
<path d="M10.9167 15.8333C10.7519 15.8327 10.591 15.7831 10.4544 15.691C10.3177 15.5988 10.2115 15.4682 10.149 15.3157C10.0866 15.1632 10.0708 14.9956 10.1036 14.8341C10.1364 14.6726 10.2164 14.5244 10.3334 14.4083L14.1667 10.5917C14.2449 10.5142 14.3068 10.422 14.3492 10.3205C14.3915 10.2189 14.4132 10.11 14.4132 10C14.4132 9.89 14.3915 9.78108 14.3492 9.67953C14.3068 9.57798 14.2449 9.48581 14.1667 9.40834L10.3334 5.59168C10.2553 5.51421 10.1933 5.42204 10.151 5.32049C10.1087 5.21894 10.0869 5.11002 10.0869 5.00001C10.0869 4.89 10.1087 4.78108 10.151 4.67953C10.1933 4.57798 10.2553 4.48581 10.3334 4.40834C10.4895 4.25313 10.7008 4.16602 10.9209 4.16602C11.1411 4.16602 11.3523 4.25313 11.5084 4.40834L15.3334 8.23334C15.8016 8.70209 16.0646 9.33751 16.0646 10C16.0646 10.6625 15.8016 11.2979 15.3334 11.7667L11.5084 15.5917C11.4305 15.6689 11.3382 15.73 11.2367 15.7715C11.1351 15.813 11.0264 15.834 10.9167 15.8333Z" fill="currentColor"/>
<path d="M5.08335 15.8333C4.91854 15.8327 4.75763 15.7831 4.62098 15.691C4.48433 15.5988 4.37806 15.4682 4.31563 15.3157C4.25319 15.1632 4.23738 14.9956 4.2702 14.8341C4.30302 14.6726 4.383 14.5244 4.50002 14.4083L8.90835 10L4.50002 5.59168C4.42191 5.51421 4.35991 5.42204 4.31761 5.32049C4.2753 5.21894 4.25352 5.11002 4.25352 5.00001C4.25352 4.89 4.2753 4.78108 4.31761 4.67953C4.35991 4.57798 4.42191 4.48581 4.50002 4.40834C4.65615 4.25313 4.86736 4.16602 5.08752 4.16602C5.30767 4.16602 5.51888 4.25313 5.67502 4.40834L10.675 9.40834C10.7531 9.48581 10.8151 9.57798 10.8574 9.67953C10.8997 9.78108 10.9215 9.89 10.9215 10C10.9215 10.11 10.8997 10.2189 10.8574 10.3205C10.8151 10.422 10.7531 10.5142 10.675 10.5917L5.67502 15.5917C5.59715 15.6689 5.5048 15.73 5.40327 15.7715C5.30174 15.813 5.19302 15.834 5.08335 15.8333Z" fill="currentColor"/>
</svg>
