<svg viewBox="0 0 24 12" fill="none" xmlns="http://www.w3.org/2000/svg">
<path d="M1.50068 0.00793207C1.69766 0.00766794 1.89275 0.046413 2.07468 0.121932C2.25661 0.197451 2.42179 0.308248 2.56068 0.447932L10.2337 8.11992C10.4658 8.35214 10.7415 8.53634 11.0448 8.66202C11.3482 8.7877 11.6733 8.85239 12.0017 8.85239C12.33 8.85239 12.6552 8.7877 12.9585 8.66202C13.2619 8.53634 13.5375 8.35214 13.7697 8.11992L21.4307 0.457931C21.5691 0.314666 21.7346 0.200393 21.9176 0.12178C22.1006 0.0431662 22.2974 0.00178736 22.4966 5.66355e-05C22.6957 -0.00167409 22.8933 0.0362781 23.0776 0.111699C23.262 0.187121 23.4294 0.2985 23.5703 0.439339C23.7111 0.580178 23.8225 0.747656 23.8979 0.932C23.9733 1.11634 24.0113 1.31386 24.0096 1.51303C24.0078 1.7122 23.9664 1.90903 23.8878 2.09204C23.8092 2.27504 23.6949 2.44056 23.5517 2.57893L15.8907 10.2409C14.8586 11.2711 13.4599 11.8497 12.0017 11.8497C10.5434 11.8497 9.14477 11.2711 8.11268 10.2409L0.439681 2.56893C0.229765 2.35915 0.0867941 2.09181 0.02886 1.80075C-0.0290742 1.50969 0.000631988 1.20799 0.114219 0.933814C0.227807 0.659641 0.420171 0.425323 0.666969 0.26051C0.913768 0.0956978 1.20391 0.00779755 1.50068 0.00793207Z" fill="currentColor"/>
</svg>
