<svg viewBox="0 0 7 13" fill="none" xmlns="http://www.w3.org/2000/svg">
<path d="M5.95551 4.18761L2.13385 0.365939C1.89936 0.131554 1.58136 -7.81054e-05 1.24981 3.47696e-08C0.918261 7.81749e-05 0.600323 0.13186 0.365939 0.366356C0.131554 0.600851 -7.81053e-05 0.918851 3.47695e-08 1.2504C7.81748e-05 1.58195 0.131861 1.89989 0.366356 2.13427L4.18802 5.95511C4.22682 5.99381 4.2576 6.03979 4.27861 6.09041C4.29962 6.14103 4.31043 6.1953 4.31043 6.25011C4.31043 6.30491 4.29962 6.35918 4.27861 6.4098C4.2576 6.46042 4.22682 6.5064 4.18802 6.54511L0.366356 10.3659C0.131861 10.6003 7.81748e-05 10.9183 3.47695e-08 11.2498C-7.81053e-05 11.5814 0.131554 11.8994 0.365939 12.1339C0.600323 12.3684 0.918261 12.5001 1.24981 12.5002C1.58136 12.5003 1.89936 12.3687 2.13385 12.1343L5.95551 8.31261C6.50154 7.76508 6.80817 7.02337 6.80817 6.25011C6.80817 5.47684 6.50154 4.73514 5.95551 4.18761V4.18761Z" fill="currentColor"/>
</svg>
