<svg viewBox="0 0 9 6" fill="none" xmlns="http://www.w3.org/2000/svg">
<path d="M0.663872 0H8.11721C8.24905 0.00055282 8.37778 0.0401893 8.4871 0.113898C8.59642 0.187606 8.68143 0.292077 8.73138 0.414098C8.78133 0.536119 8.79398 0.670212 8.76772 0.799421C8.74147 0.928629 8.67749 1.04715 8.58387 1.14L4.86387 4.85999C4.8019 4.92248 4.72816 4.97207 4.64692 5.00592C4.56568 5.03976 4.47855 5.05719 4.39054 5.05719C4.30253 5.05719 4.21539 5.03976 4.13415 5.00592C4.05291 4.97207 3.97918 4.92248 3.91721 4.85999L0.197205 1.14C0.103591 1.04715 0.03961 0.928629 0.0133532 0.799421C-0.0129036 0.670212 -0.000257413 0.536119 0.049693 0.414098C0.0996434 0.292077 0.184655 0.187606 0.293977 0.113898C0.403299 0.0401893 0.532023 0.00055282 0.663872 0V0Z" fill="currentColor"/>
</svg>
