<svg viewBox="0 0 7 13" fill="none" xmlns="http://www.w3.org/2000/svg">
<path d="M2.62015 6.54511C2.58135 6.5064 2.55056 6.46042 2.52956 6.4098C2.50855 6.35918 2.49774 6.30491 2.49774 6.25011C2.49774 6.1953 2.50855 6.14103 2.52956 6.09041C2.55056 6.03979 2.58135 5.99381 2.62015 5.95511L6.44181 2.13427C6.67631 1.89989 6.80809 1.58195 6.80817 1.2504C6.80824 0.918852 6.67661 0.600851 6.44223 0.366356C6.20784 0.13186 5.88991 7.81774e-05 5.55836 3.47718e-08C5.22681 -7.81079e-05 4.90881 0.131554 4.67431 0.365939L0.852654 4.18761C0.306628 4.73514 0 5.47684 0 6.25011C0 7.02337 0.306628 7.76508 0.852654 8.31261L4.67431 12.1343C4.90881 12.3687 5.22681 12.5003 5.55836 12.5002C5.88991 12.5001 6.20784 12.3684 6.44223 12.1339C6.67661 11.8994 6.80824 11.5814 6.80817 11.2498C6.80809 10.9183 6.67631 10.6003 6.44181 10.3659L2.62015 6.54511Z" fill="currentColor"/>
</svg>
