<svg viewBox="0 0 24 24" fill="none" xmlns="http://www.w3.org/2000/svg">
  <path d="M9 4H5C4.44772 4 4 4.44772 4 5V11C4 11.5523 4.44772 12 5 12H9C9.55228 12 10 11.5523 10 11V5C10 4.44772 9.55228 4 9 4Z" stroke="currentColor" stroke-width="1.5" stroke-linecap="round" stroke-linejoin="round"/>
  <path d="M19 4H15C14.4477 4 14 4.44772 14 5V8C14 8.55228 14.4477 9 15 9H19C19.5523 9 20 8.55228 20 8V5C20 4.44772 19.5523 4 19 4Z" stroke="currentColor" stroke-width="1.5" stroke-linecap="round" stroke-linejoin="round"/>
  <path d="M19 12H15C14.4477 12 14 12.4477 14 13V19C14 19.5523 14.4477 20 15 20H19C19.5523 20 20 19.5523 20 19V13C20 12.4477 19.5523 12 19 12Z" stroke="currentColor" stroke-width="1.5" stroke-linecap="round" stroke-linejoin="round"/>
  <path d="M9 15H5C4.44772 15 4 15.4477 4 16V19C4 19.5523 4.44772 20 5 20H9C9.55228 20 10 19.5523 10 19V16C10 15.4477 9.55228 15 9 15Z" stroke="currentColor" stroke-width="1.5" stroke-linecap="round" stroke-linejoin="round"/>
</svg>
