<svg viewBox="0 0 26 26" fill="none" xmlns="http://www.w3.org/2000/svg">
<path d="M16.25 8.66673H23.335C22.9568 7.66451 22.3692 6.75451 21.6114 5.99741L17.8371 2.22091C17.0791 1.46402 16.1689 0.876835 15.1667 0.498413V7.58341C15.1667 8.18167 15.6517 8.66673 16.25 8.66673Z" fill="currentColor"/>
<path d="M23.8073 10.8333H16.25C14.4551 10.8333 13 9.37823 13 7.58332V0.026C12.8256 0.0140664 12.6512 0 12.4746 0H7.58332C4.59327 0.00360547 2.17024 2.42663 2.16669 5.41668V20.5834C2.17024 23.5734 4.59327 25.9964 7.58332 26H18.4166C21.4067 25.9964 23.8297 23.5734 23.8333 20.5833V11.3587C23.8333 11.1822 23.8193 11.0077 23.8073 10.8333Z" fill="currentColor"/>
</svg>
