<svg viewBox="0 0 20 24" fill="none" xmlns="http://www.w3.org/2000/svg">
<path d="M17.95 5.53603L14.464 2.05002C13.8156 1.3981 13.0443 0.881248 12.1948 0.529368C11.3453 0.177488 10.4345 -0.00243056 9.515 2.47962e-05H5C3.67441 0.00161265 2.40356 0.528907 1.46622 1.46624C0.528882 2.40358 0.00158786 3.67443 0 5.00003V19C0.00158786 20.3256 0.528882 21.5965 1.46622 22.5338C2.40356 23.4711 3.67441 23.9984 5 24H15C16.3256 23.9984 17.5964 23.4711 18.5338 22.5338C19.4711 21.5965 19.9984 20.3256 20 19V10.485C20.0025 9.56554 19.8225 8.6547 19.4707 7.80521C19.1188 6.95572 18.6019 6.18445 17.95 5.53603ZM16.536 6.95003C16.841 7.26443 17.1036 7.61744 17.317 8.00003H13C12.7348 8.00003 12.4804 7.89467 12.2929 7.70713C12.1054 7.5196 12 7.26524 12 7.00003V2.68303C12.3826 2.89641 12.7356 3.15898 13.05 3.46403L16.536 6.95003ZM18 19C18 19.7957 17.6839 20.5587 17.1213 21.1213C16.5587 21.684 15.7956 22 15 22H5C4.20435 22 3.44129 21.684 2.87868 21.1213C2.31607 20.5587 2 19.7957 2 19V5.00003C2 4.20438 2.31607 3.44131 2.87868 2.8787C3.44129 2.3161 4.20435 2.00003 5 2.00003H9.515C9.68 2.00003 9.838 2.03202 10 2.04702V7.00003C10 7.79568 10.3161 8.55874 10.8787 9.12135C11.4413 9.68396 12.2044 10 13 10H17.953C17.968 10.162 18 10.32 18 10.485V19ZM14.724 13.311C14.9066 13.5031 15.0055 13.7598 14.9989 14.0248C14.9924 14.2897 14.8809 14.5412 14.689 14.724L11.1 18.138C10.5358 18.6933 9.77508 19.0031 8.9835 18.9999C8.19192 18.9967 7.43367 18.6808 6.874 18.121L5.334 16.747C5.13588 16.5704 5.01605 16.3223 5.00086 16.0573C4.99334 15.9261 5.01173 15.7947 5.055 15.6706C5.09826 15.5465 5.16554 15.4321 5.253 15.334C5.34046 15.2359 5.44639 15.156 5.56473 15.0989C5.68307 15.0417 5.81151 15.0084 5.94272 15.0009C6.20771 14.9857 6.46788 15.0764 6.666 15.253L8.251 16.667C8.34174 16.7689 8.45236 16.8512 8.57608 16.9087C8.69979 16.9663 8.83397 16.9979 8.97036 17.0016C9.10675 17.0054 9.24246 16.9812 9.36914 16.9305C9.49583 16.8798 9.61081 16.8038 9.707 16.707L13.307 13.276C13.4022 13.185 13.5144 13.1137 13.6373 13.0662C13.7601 13.0186 13.8911 12.9959 14.0228 12.9991C14.1544 13.0024 14.2842 13.0316 14.4045 13.0851C14.5248 13.1386 14.6334 13.2154 14.724 13.311Z" fill="currentColor"/>
</svg>
