<svg viewBox="0 0 24 24" fill="none" xmlns="http://www.w3.org/2000/svg">
<path d="M12 2V4" stroke="currentColor" stroke-width="1.5" stroke-linecap="round"/>
<path d="M4.93 4.93L6.34 6.34" stroke="currentColor" stroke-width="1.5" stroke-linecap="round"/>
<path d="M2 12H4" stroke="currentColor" stroke-width="1.5" stroke-linecap="round"/>
<path d="M20 12H22" stroke="currentColor" stroke-width="1.5" stroke-linecap="round"/>
<path d="M19.07 4.93L17.66 6.34" stroke="currentColor" stroke-width="1.5" stroke-linecap="round"/>
<path d="M9 22H15" stroke="currentColor" stroke-width="1.5" stroke-linecap="round"/>
<path d="M9 19H15" stroke="currentColor" stroke-width="1.5" stroke-linecap="round"/>
<path d="M15 19C15 17.57 16.74 16.18 17.65 15C18.56 13.82 19 12.44 19 11C19 7.13 15.87 4 12 4C8.13 4 5 7.13 5 11C5 12.44 5.44 13.82 6.35 15C7.26 16.18 9 17.57 9 19" stroke="currentColor" stroke-width="1.5" stroke-linecap="round" stroke-linejoin="round"/>
</svg>
