<svg viewBox="0 0 24 24" fill="none" xmlns="http://www.w3.org/2000/svg">
<path d="M20.84 4.61C20.3292 4.09924 19.7228 3.69397 19.0554 3.41769C18.3879 3.14142 17.6725 3 16.95 3C16.2275 3 15.5121 3.14142 14.8446 3.41769C14.1772 3.69397 13.5708 4.09924 13.06 4.61L12 5.67L10.94 4.61C9.9083 3.57831 8.50903 3.00055 7.05 3.00055C5.59096 3.00055 4.1917 3.57831 3.16 4.61C2.12831 5.64169 1.55055 7.04097 1.55055 8.5C1.55055 9.95903 2.12831 11.3583 3.16 12.39L4.22 13.45L12 21.23L19.78 13.45L20.84 12.39C21.3508 11.8792 21.756 11.2728 22.0323 10.6054C22.3086 9.93789 22.45 9.22249 22.45 8.5C22.45 7.77751 22.3086 7.06211 22.0323 6.39464C21.756 5.72718 21.3508 5.12075 20.84 4.61Z" stroke="currentColor" stroke-width="2" stroke-linecap="round" stroke-linejoin="round"/>
</svg>
