<svg viewBox="0 0 16 16" fill="none" xmlns="http://www.w3.org/2000/svg">
<path d="M9.33317 16.0002C7.21214 15.9979 5.17864 15.1543 3.67885 13.6545C2.17905 12.1547 1.33546 10.1212 1.33317 8.0002C1.23117 2.02954 8.0205 -1.9898 13.1938 1.0062L14.2292 1.58087L13.2005 2.16754C8.73383 4.6262 9.0605 11.4142 13.7338 13.4382L14.8145 13.9255L13.8365 14.5962C12.5121 15.5092 10.9418 15.9987 9.33317 16.0002V16.0002ZM9.33317 1.33354C7.56565 1.33548 5.87109 2.03848 4.62127 3.2883C3.37144 4.53812 2.66844 6.23269 2.6665 8.0002C2.56317 12.7449 7.84183 16.1335 12.1032 14.0549C11.1055 13.3853 10.2785 12.4915 9.68831 11.445C9.09811 10.3985 8.76114 9.22829 8.70438 8.02815C8.64761 6.82801 8.87263 5.63125 9.36142 4.53368C9.8502 3.43612 10.5892 2.46824 11.5192 1.70754C10.8173 1.4585 10.0779 1.33199 9.33317 1.33354V1.33354Z" fill="currentColor"/>
</svg>
