<svg width="18" height="18" viewBox="0 0 18 18" fill="none" xmlns="http://www.w3.org/2000/svg">
<g clip-path="url(#clip0_149_1224)">
<path d="M0.995151 9.30009L3.66515 11.2501L2.65115 14.3903C2.48728 14.8774 2.48521 15.4043 2.64523 15.8927C2.80526 16.381 3.11881 16.8045 3.53915 17.1001C3.95229 17.4052 4.45295 17.5686 4.96652 17.566C5.48009 17.5635 5.97908 17.395 6.38915 17.0858L8.9999 15.1643L11.6114 17.0836C12.0238 17.3869 12.5217 17.5517 13.0337 17.5542C13.5456 17.5567 14.0451 17.3968 14.4605 17.0975C14.8758 16.7982 15.1855 16.3749 15.3451 15.8884C15.5047 15.402 15.5059 14.8775 15.3487 14.3903L14.3347 11.2501L17.0047 9.30009C17.4165 8.99897 17.7227 8.5754 17.8794 8.08988C18.0361 7.60436 18.0354 7.08173 17.8774 6.59663C17.7194 6.11153 17.4121 5.68878 16.9994 5.38877C16.5868 5.08875 16.0898 4.92682 15.5797 4.92609H12.2999L11.3047 1.82409C11.1481 1.33581 10.8406 0.909848 10.4264 0.607637C10.0122 0.305425 9.51265 0.142578 8.9999 0.142578C8.48715 0.142578 7.98765 0.305425 7.57342 0.607637C7.1592 0.909848 6.85166 1.33581 6.69515 1.82409L5.6999 4.92609H2.42315C1.91296 4.92682 1.41604 5.08875 1.00339 5.38877C0.590727 5.68878 0.283431 6.11153 0.125392 6.59663C-0.0326479 7.08173 -0.0333474 7.60436 0.123393 8.08988C0.280133 8.5754 0.586296 8.99897 0.99815 9.30009H0.995151Z" fill="#F59E0B"/>
</g>
<defs>
<clipPath id="clip0_149_1224">
<rect width="18" height="18" fill="white"/>
</clipPath>
</defs>
</svg>
