<svg viewBox="0 0 16 16" fill="none" xmlns="http://www.w3.org/2000/svg">
<path d="M15.3333 7.33333H12.6133C12.5614 6.96603 12.4654 6.60632 12.3273 6.262L14.6787 4.89933C14.7573 4.85704 14.8265 4.79941 14.8824 4.72984C14.9383 4.66027 14.9797 4.58019 15.0041 4.49435C15.0284 4.4085 15.0353 4.31863 15.0243 4.23007C15.0133 4.14151 14.9846 4.05606 14.94 3.97879C14.8954 3.90152 14.8357 3.83399 14.7644 3.78022C14.6932 3.72645 14.6119 3.68752 14.5254 3.66575C14.4388 3.64398 14.3488 3.63981 14.2606 3.65348C14.1724 3.66715 14.0879 3.69838 14.012 3.74533L11.6587 5.11C11.4337 4.82581 11.1767 4.56855 10.8927 4.34333L12.2567 1.98933C12.3388 1.8367 12.3583 1.65808 12.3109 1.49134C12.2636 1.3246 12.1532 1.18285 12.0031 1.09615C11.853 1.00944 11.6751 0.984603 11.507 1.02689C11.3389 1.06918 11.1939 1.17527 11.1027 1.32267L9.738 3.67267C9.39373 3.53448 9.034 3.43845 8.66667 3.38667V0.666667C8.66667 0.489856 8.59643 0.320286 8.4714 0.195262C8.34638 0.0702379 8.17681 0 8 0C7.82319 0 7.65362 0.0702379 7.5286 0.195262C7.40357 0.320286 7.33333 0.489856 7.33333 0.666667V3.38667C6.966 3.43845 6.60627 3.53448 6.262 3.67267L4.89933 1.32133C4.80814 1.17393 4.66313 1.06784 4.49504 1.02556C4.32694 0.983269 4.14899 1.00811 3.99891 1.09482C3.84882 1.18152 3.73841 1.32327 3.69107 1.49001C3.64373 1.65675 3.6632 1.83537 3.74533 1.988L5.10933 4.34333C4.82534 4.56855 4.5683 4.82581 4.34333 5.11L1.99 3.74533C1.91411 3.69838 1.82956 3.66715 1.74138 3.65348C1.65319 3.63981 1.56316 3.64398 1.47661 3.66575C1.39007 3.68752 1.30878 3.72645 1.23755 3.78022C1.16633 3.83399 1.10663 3.90152 1.06199 3.97879C1.01735 4.05606 0.98868 4.14151 0.977676 4.23007C0.966672 4.31863 0.97356 4.4085 0.997933 4.49435C1.0223 4.58019 1.06366 4.66027 1.11956 4.72984C1.17546 4.79941 1.24475 4.85704 1.32333 4.89933L3.67267 6.262C3.53463 6.60632 3.43861 6.96603 3.38667 7.33333H0.666667C0.489856 7.33333 0.320286 7.40357 0.195262 7.5286C0.0702379 7.65362 0 7.82319 0 8C0 8.17681 0.0702379 8.34638 0.195262 8.4714C0.320286 8.59643 0.489856 8.66667 0.666667 8.66667H3.38667C3.43861 9.03397 3.53463 9.39368 3.67267 9.738L1.32133 11.1007C1.24275 11.143 1.17346 11.2006 1.11756 11.2702C1.06166 11.3397 1.0203 11.4198 0.995933 11.5057C0.97156 11.5915 0.964672 11.6814 0.975676 11.7699C0.98668 11.8585 1.01535 11.9439 1.05999 12.0212C1.10463 12.0985 1.16433 12.166 1.23555 12.2198C1.30678 12.2736 1.38807 12.3125 1.47461 12.3342C1.56116 12.356 1.65119 12.3602 1.73938 12.3465C1.82756 12.3329 1.91211 12.3016 1.988 12.2547L4.34133 10.89C4.5663 11.1742 4.82334 11.4315 5.10733 11.6567L3.74533 14.0107C3.6632 14.1633 3.64373 14.3419 3.69107 14.5087C3.73841 14.6754 3.84882 14.8171 3.99891 14.9039C4.14899 14.9906 4.32694 15.0154 4.49504 14.9731C4.66313 14.9308 4.80814 14.8247 4.89933 14.6773L6.262 12.326C6.60631 12.4644 6.966 12.5608 7.33333 12.6133V15.3333C7.33333 15.5101 7.40357 15.6797 7.5286 15.8047C7.65362 15.9298 7.82319 16 8 16C8.17681 16 8.34638 15.9298 8.4714 15.8047C8.59643 15.6797 8.66667 15.5101 8.66667 15.3333V12.6133C9.03394 12.5612 9.39363 12.4652 9.738 12.3273L11.1007 14.6787C11.1919 14.8261 11.3369 14.9322 11.505 14.9744C11.6731 15.0167 11.851 14.9919 12.0011 14.9052C12.1512 14.8185 12.2616 14.6767 12.3089 14.51C12.3563 14.3433 12.3368 14.1646 12.2547 14.012L10.8907 11.658C11.1747 11.4328 11.4317 11.1755 11.6567 10.8913L14.01 12.256C14.0859 12.303 14.1704 12.3342 14.2586 12.3479C14.3468 12.3615 14.4368 12.3574 14.5234 12.3356C14.6099 12.3138 14.6912 12.2749 14.7624 12.2211C14.8337 12.1673 14.8934 12.0998 14.938 12.0225C14.9826 11.9453 15.0113 11.8598 15.0223 11.7713C15.0333 11.6827 15.0264 11.5928 15.0021 11.507C14.9777 11.4211 14.9363 11.3411 14.8804 11.2715C14.8245 11.2019 14.7553 11.1443 14.6767 11.102L12.3253 9.73933C12.4642 9.39467 12.5609 9.03451 12.6133 8.66667H15.3333C15.5101 8.66667 15.6797 8.59643 15.8047 8.4714C15.9298 8.34638 16 8.17681 16 8C16 7.82319 15.9298 7.65362 15.8047 7.5286C15.6797 7.40357 15.5101 7.33333 15.3333 7.33333ZM8 11.3333C3.59467 11.1933 3.596 4.806 8 4.66667C12.4053 4.80667 12.404 11.194 8 11.3333Z" fill="currentColor"/>
</svg>
