<svg viewBox="0 0 24 24" fill="none" xmlns="http://www.w3.org/2000/svg">
<path d="M17 21V19C17 17.9391 16.5786 16.9217 15.8284 16.1716C15.0783 15.4214 14.0609 15 13 15H5C3.93913 15 2.92172 15.4214 2.17157 16.1716C1.42143 16.9217 1 17.9391 1 19V21" stroke="currentColor" stroke-width="1.5" stroke-linecap="round" stroke-linejoin="round"/>
<circle cx="9" cy="7" r="4" stroke="currentColor" stroke-width="1.5" stroke-linecap="round" stroke-linejoin="round"/>
<path d="M23 21V19C22.9986 18.1137 22.7005 17.2528 22.1523 16.5523C21.6041 15.8519 20.8368 15.3516 19.9746 15.13" stroke="currentColor" stroke-width="1.5" stroke-linecap="round" stroke-linejoin="round"/>
<path d="M16 3.13C16.8604 3.35031 17.6259 3.85071 18.1721 4.55116C18.7183 5.25162 19.0153 6.11158 19.0153 6.997C19.0153 7.88242 18.7183 8.74238 18.1721 9.44284C17.6259 10.1433 16.8604 10.6437 16 10.864" stroke="currentColor" stroke-width="1.5" stroke-linecap="round" stroke-linejoin="round"/>
</svg>
